<?xml version="1.0" encoding="UTF-8" standalone="no"?>
<!-- Created with Inkscape (http://www.inkscape.org/) -->

<svg
   width="512"
   height="512"
   viewBox="0 0 135.46666 135.46667"
   version="1.1"
   id="svg5"
   xml:space="preserve"
   inkscape:version="1.2.2 (732a01da63, 2022-12-09, custom)"
   sodipodi:docname="icon.svg"
   inkscape:export-filename="../db161e52/logo.png"
   inkscape:export-xdpi="5.6199999"
   inkscape:export-ydpi="5.6199999"
   xmlns:inkscape="http://www.inkscape.org/namespaces/inkscape"
   xmlns:sodipodi="http://sodipodi.sourceforge.net/DTD/sodipodi-0.dtd"
   xmlns="http://www.w3.org/2000/svg"
   xmlns:svg="http://www.w3.org/2000/svg"><sodipodi:namedview
     id="namedview7"
     pagecolor="#ffffff"
     bordercolor="#666666"
     borderopacity="1.0"
     inkscape:showpageshadow="2"
     inkscape:pageopacity="0.0"
     inkscape:pagecheckerboard="0"
     inkscape:deskcolor="#d1d1d1"
     inkscape:document-units="mm"
     showgrid="false"
     inkscape:zoom="1.4142136"
     inkscape:cx="125.86501"
     inkscape:cy="237.94143"
     inkscape:window-width="1869"
     inkscape:window-height="1016"
     inkscape:window-x="1011"
     inkscape:window-y="27"
     inkscape:window-maximized="1"
     inkscape:current-layer="layer1" /><defs
     id="defs2" /><g
     inkscape:label="Layer 1"
     inkscape:groupmode="layer"
     id="layer1"><path
       style="fill:#ffffff;stroke:none;stroke-width:0.164604"
       d="m 33.349758,36.689085 v 1.387563 h 6.419557 c 0.744013,0 1.935414,0.222055 2.598606,-0.169212 1.170498,-0.690508 1.951378,-3.400057 2.504124,-4.604299 1.560446,-3.399729 3.202696,-6.789915 5.564434,-9.711641 3.638905,-4.50192 9.588845,-9.090749 15.175674,-10.859091 4.651226,-1.438723 10.93953,-0.955381 15.143568,-0.232918 8.215171,1.845419 15.216333,8.689735 18.665436,14.548694 1.746283,2.935388 3.418003,6.29084 3.838243,9.711641 0.0208,1.961342 0.0471,2.924587 0.0471,4.86741 h -0.82302 c 0,-2.602388 0.0612,-4.300019 -0.5325,-6.842659 -1.4439,-6.182366 -5.439333,-10.713747 -10.002157,-14.842349 -7.402636,-5.2102 -8.967338,-5.416869 -17.811156,-5.36806 -9.33435,0.561789 -19.387014,5.69398 -25.20946,13.29704 -2.351963,2.825185 -3.425871,7.360926 -5.595515,10.512762 -0.555371,0.806722 -1.543985,0.680306 -2.411115,0.680306 h -6.090354 c -1.245066,0 -2.783782,-0.03241 -2.783782,1.646045 0,1.480609 1.286873,1.645547 2.454578,1.646038 h 8.230198 c 0.803599,0 2.713662,0.350114 3.317926,-0.263862 0.913386,-0.928199 1.223665,-3.291747 1.719455,-4.509657 1.222676,-3.003359 2.679918,-5.964751 4.867013,-8.394798 3.422443,-3.802848 7.805025,-7.383647 12.810963,-8.818337 9.209927,-2.639426 20.261937,2.692759 24.803855,10.958188 1.327199,2.415066 2.443379,5.002641 2.890115,7.736383 1.239635,7.583474 -2.29573,14.79692 -7.776877,19.902443 -3.235127,3.01324 -7.089002,5.342223 -10.699265,7.869551 -3.019001,2.113516 -5.987143,4.310814 -9.05322,6.355859 -4.342093,2.896205 -8.655215,5.907803 -11.140407,10.644449 -6.061873,11.553222 5.551606,24.705576 17.724566,21.373496 1.997471,-0.54681 3.557588,-1.7425 5.431934,-2.53227 2.684857,-1.13099 5.979572,-1.49213 8.888618,-1.03964 1.329013,0.20675 2.044214,1.81773 3.127472,2.48717 0.707139,0.43703 1.791121,0.40944 2.587311,0.40944 l -0.694901,-3.60055 c -0.721622,-0.21333 -0.828881,2.83266 -1.464743,2.38728 -1.020217,-0.71487 -1.855447,-1.61864 -3.061335,-2.07937 -1.633857,-0.62418 -5.227988,-0.35884 -6.91337,0.0425 0.398341,-1.472545 1.59057,-2.416384 3.127475,-2.603376 3.621946,-0.440645 7.542647,-0.0303 11.193074,-0.0303 0.899892,0 3.125994,0.405252 3.851243,-0.169219 0.464019,-0.367557 0.163523,-3.412366 0.190173,-3.930353 0.215242,-4.183615 -0.288116,-4.209985 1.349706,-4.181157 l 0.04081,10.749795 3.992962,-0.16922 0.28674,-2.793658 -0.16459,-8.230198 v -0.329211 c 0,-1.061526 0.20378,-2.397456 -0.58567,-3.246154 -0.72623,-0.780885 -2.08899,-0.569369 -3.03562,-0.444925 -1.876987,0.246411 -3.53665,0.09341 -5.428608,0.09341 0.113084,-0.568212 0.0069,-1.187211 0.540023,-1.500451 0.525578,-0.308799 1.340861,-0.169212 1.925703,-0.169212 1.514191,0 3.954392,-0.199767 5.431772,0.216947 0.93426,0.263521 1.43475,0.61715 2.14059,2.152608 l 0.82806,0.06142 c -0.092,-4.456484 -4.88011,-3.223373 -8.089884,-3.223373 l 2.027878,-1.059792 c 0.693576,0.01072 1.328466,-0.04827 1.359016,0 5.00293,0.19077 4.72353,0.260987 5.80818,3.324763 0.5162,4.106938 0.50284,9.092725 0.69231,12.304735 0.12176,0.820288 0.13897,1.909761 -0.0811,2.715021 -0.21118,0.77314 -0.27151,1.04441 -0.56829,1.77871 -0.60048,1.48637 0.66451,3.25159 2.30298,2.89736 2.71267,-0.58665 1.34429,-2.85362 1.12586,-4.39233 -0.17284,-1.218075 -0.0821,-2.379431 -0.0648,-3.779032 l 0.10463,-8.440244 c 0.0159,-1.284475 0.22762,-3.019793 -0.11454,-4.264362 -0.42945,-1.561927 -3.69747,-5.079245 -5.33084,-5.295923 -0.76343,-0.281475 -4.04695,-0.296034 -4.85219,-0.296034 l -0.483197,1.170288 c 0.711907,0 4.165547,-0.136992 4.841417,0.11337 0.85532,0.126556 1.60566,0.676988 2.05372,1.171951 0.82033,0.915218 1.77554,1.965814 2.54242,3.59515 0.35604,1.180209 0.34217,3.455528 0.34217,4.68068 v 7.900988 c 0,1.228766 -0.13772,2.268655 0.15934,3.463178 0.17942,0.72162 0.85737,1.66374 0.781,2.4624 -0.0706,0.7371 -0.8487,1.43584 -1.59864,1.38152 -0.74367,-0.0538 -1.41131,-0.8082 -1.41131,-1.54596 0,-0.95075 1.01264,-1.52638 1.17346,-2.46923 0.29218,-1.714347 0.16956,-3.851156 0.11425,-5.61435 l -0.17579,-5.603612 c -0.0295,-0.940746 -0.15682,-3.313638 -0.52652,-4.201181 -0.45612,-1.094618 -0.57866,-1.237944 -1.15535,-2.288258 -0.0243,-0.108601 -1.37988,-2.143815 -2.86268,-2.154269 -1.60574,-0.01132 -1.1924,-0.03037 -2.76338,-0.03037 1.46527,-1.904426 0.51422,-1.478339 -0.1292,-3.31696 h 16.2958 4.1151 l 1.71139,-0.169212 0.26386,-2.958262 -0.0232,-0.164602 c -0.005,-0.447228 0.0472,-0.986306 -0.38155,-1.264489 -0.59077,-0.383366 -3.70017,-0.216948 -4.36879,-0.216948 l -13.34352,-0.140966 -0.61266,-0.736536 c -0.84811,-1.019581 -2.45134,0.09109 -3.71204,0.553789 -3.213732,1.179556 -6.27336,5.372861 -9.099296,7.00659 -1.199471,0.547309 -2.551919,0.128931 -3.848833,0.230493 v -1.152232 c 1.353043,0.05811 2.090882,0.419093 3.401956,-0.09434 1.125064,-0.440483 2.663479,-1.644092 3.537198,-2.434689 2.161252,-1.955658 4.472681,-3.829821 6.558375,-5.865807 1.01298,-0.988944 2.49898,-1.959961 3.82009,-2.494759 1.52473,-0.61726 4.44741,-0.460619 6.07633,-0.286138 1.15898,0.123946 2.21209,1.151206 2.85109,-0.143898 l -0.40221,-1.025703 c -0.88606,1.057085 -1.49048,0.405583 -2.63366,0.336446 -1.76044,-0.106495 -4.76496,-0.515375 -6.41956,0.09202 -1.25938,0.462369 -2.78034,1.744186 -3.752,2.623336 -2.766339,2.503134 -6.737757,6.152535 -9.306449,8.190006 -2.092775,1.156339 -4.553849,-1.27125 -4.554179,2.255723 -2.015245,0 -5.23029,-0.609696 -7.077971,0.233241 -2.885014,1.316175 -4.689021,4.608339 -7.618311,5.789532 -1.061371,0.427972 -2.607056,0.396785 -3.739368,0.396785 l -0.164602,0.987624 2.075654,-0.160544 c 1.887836,-0.08472 2.827092,0.244607 3.520847,0.74218 -0.0776,0.437977 -0.05091,0.818398 -0.353213,1.812931 -0.184193,0.364105 -1.280089,1.893274 -1.780784,2.091142 -2.547132,1.775652 -2.78598,-2.069813 -5.090607,-0.415382 -1.25823,0.903351 -0.597016,3.092088 0.969682,3.11069 0.887381,0.01051 1.20935,-0.700227 1.92011,-1.016927 1.113381,-0.495784 2.360089,-0.462861 3.511002,-1.112721 1.878135,-1.060543 2.648186,-2.998685 3.443063,-4.580696 0.474881,-0.945158 1.961787,-2.268718 2.757156,-2.933721 2.065942,-1.727518 6.447731,-2.46221 9.260646,-2.46221 -0.190774,-1.661672 -6.394074,-0.286175 -7.5519,0.03925 l -0.523107,-1.04479 c 2.061406,-0.735039 4.263829,-0.453576 6.441703,-0.453576 v 5.39675 c -1.518141,0 -3.471827,-0.32954 -4.938121,0.07144 -2.040597,0.558003 -5.147591,3.281779 -4.376093,5.34196 -3.564175,1.686203 -5.605984,4.353164 -9.815901,4.358433 -1.428593,0.0019 -2.495479,-0.658619 -3.475326,-1.433934 l -0.681648,1.089576 c 5.306836,3.49685 9.847817,-0.729106 14.355664,-3.238816 0.625062,0.533337 -1.319633,1.970788 -2.373589,2.625252 -2.915466,1.810479 -6.175108,3.383573 -9.764299,2.465086 -4.498962,-1.151405 -7.102339,-6.299724 -4.696978,-10.455979 2.601076,-4.494677 9.005651,-7.087683 13.256386,-9.82554 6.070763,-3.910171 11.900869,-7.917293 17.448023,-12.547438 3.511663,-2.931107 6.844731,-5.763775 8.74673,-10.054015 1.70069,-3.836094 1.62333,-7.582098 1.62333,-11.686833 h 0.82302 c 0,2.156972 -0.0259,4.184114 -0.0471,6.419502 0.19545,4.889762 -3.17982,9.281496 -6.372479,12.625259 -2.239272,2.345115 -4.945401,3.878237 -6.878015,6.504167 5.195563,-3.249287 11.918544,-7.9619 14.356334,-13.662138 1.89947,-6.866522 1.83251,-14.637672 -0.35515,-20.940064 -3.579,-9.447135 -9.500814,-17.399262 -17.751722,-21.464625 -3.670173,-1.786116 -8.440163,-2.179815 -12.416012,-2.179815 -5.382578,0.186904 -11.491925,1.131374 -15.67274,3.946234 -4.34587,2.995136 -8.955899,7.225391 -11.580348,11.926483 -1.373125,2.459679 -2.560252,5.043466 -3.80334,7.571783 -0.895418,2.872407 -1.121394,2.792608 -3.51042,2.927517 h -5.925695 m 65.512407,4.938147 h -1.481437 c -6.22e-4,-6.001133 -2.544611,-11.480225 -6.598319,-15.895892 -0.995195,-1.084084 -1.998454,-2.400091 -3.27792,-3.169449 -1.244736,-0.748454 -4.186868,0.123778 -3.692234,-2.591697 0.271595,-1.490326 1.92406,-2.274827 3.195952,-1.373952 0.943674,0.668462 0.681955,1.517321 1.253953,2.333596 0.792239,1.130502 2.227091,1.968175 3.178172,2.990856 4.622249,4.970714 7.421833,10.922877 7.421833,17.706538 M 57.711264,28.365034 c 2.690618,-1.887846 5.158366,-4.106706 8.559413,-4.608911 v 0.164602 c -5.722129,0.857096 -12.224647,7.600265 -13.756289,13.003717 -0.847384,2.989703 -0.596855,6.3073 -0.72887,9.382429 -0.659073,-0.05201 -1.320946,-0.229789 -1.975248,-0.04529 -4.303242,1.213624 -3.244322,7.718061 -3.244322,11.03911 0,0.867299 0.02424,3.033127 0.01759,3.721266 -0.598665,0.598665 -2.251649,0.263856 -3.042072,0.263856 v -1.316829 h 1.9891 c -0.05402,-2.671375 0,-5.372022 0,-8.065602 0,-0.996017 -0.279994,-2.497865 0.09925,-3.428701 0.803599,-1.97179 3.223276,-3.155458 5.168071,-3.155458 0.365424,-4.629491 0.49612,-8.194648 2.798271,-12.345302 -3.226405,2.491613 -2.841726,7.900831 -3.127475,11.522279 -2.068748,-0.0874 -5.032933,1.579546 -5.666823,3.785895 -0.441796,1.537733 -0.163212,3.461226 -0.232332,5.071548 l -1.028062,0.0312 -0.150755,-6.748761 c 0,-0.904664 -0.0339,-2.3438 0,-2.782056 -0.216493,-0.02801 -11.788543,-0.172335 -13.152285,0 v 0.882592 c 0.205909,0.06138 2.128377,-0.04572 2.631712,0 0.923428,0 9.559815,0.02499 9.826711,0 0.0076,0.365804 0,1.971724 0,2.72248 v 5.925745 h -0.654613 c 0,-1.075188 0.386314,-4.051382 -0.333827,-4.90617 C 41.362785,48.17697 38.987061,48.22248 38.123383,48.22248 H 28.940909 V 47.4252 c 3.975028,0 8.508073,0.142027 11.816137,-0.03716 l 0.164608,-0.164602 V 46.800684 L 40.75694,46.636075 c -3.836286,0.01906 -7.818628,-0.04722 -11.793656,-0.04722 -0.01748,-1.493947 -1.395613,-0.553584 -1.725806,-1.87799 -1.695429,-3.301206 -0.717792,-8.569359 -0.471881,-11.901531 3.3e-4,-0.994206 -0.666813,-2.795962 -0.369045,-3.618817 0.485581,-1.342186 2.455069,-1.259717 2.759425,0.162792 0.193083,0.902524 -0.806561,1.652788 -1.073546,2.468401 2.351859,-0.80014 2.05047,-4.711132 -0.65842,-4.185387 -2.834317,0.550109 -1.553901,3.477412 -1.438683,5.112426 0.258431,3.665732 -0.900178,5.072082 -0.335902,8.699789 0.17594,1.305044 0.694047,3.882305 0.813518,4.251493 -1.086884,-0.0354 0.01118,-0.0054 -1.169057,-0.03858 -0.786641,0.220239 -0.903327,0.700864 -0.903657,1.337224 -6.22e-4,1.669088 0.0377,3.112685 -0.0047,5.251757 0.672749,0.134298 2.749444,0.188938 5.361727,0.236671 2.967118,0.0347 5.573794,0.0211 8.473647,-0.01763 l 0.917027,-0.930868 c -2.871657,0.07092 -6.603256,0.05462 -9.465065,0.05462 -1.054621,0 -3.192414,0.01018 -4.241124,-0.172507 -0.106599,-1.01574 -0.1148,-2.027717 -0.112168,-3.63244 0.0012,-0.601135 -0.171495,-1.006416 0.728671,-0.986714 0.774625,0.01696 0.581341,0.432053 0.64439,3.648178 0.509782,0.05106 3.106673,0.136806 4.18812,0.136806 h 9.332821 l -0.01653,2.798265 -0.82733,-0.03319 c 0.549137,-3.132277 -1.317113,-1.567079 -1.317113,-0.131403 -6.672719,0 -12.357555,0.286576 -19.023194,-0.0031 -1.02186,-0.04442 -1.372471,-0.828944 -2.140678,-1.371481 -1.377405,-0.972974 -3.297185,-0.682609 -4.261112,0.722779 -1.335598,1.947265 -0.104355,4.748827 2.286523,4.915569 1.651146,0.115062 2.073519,-1.101859 3.320066,-1.790067 0.740223,-0.408879 2.250302,-0.2609 3.099491,-0.319169 5.996693,-0.410522 11.9488,-0.236798 17.994354,-0.24464 l -5.64e-4,-1.390889 0.869527,-0.02516 V 54.6574 h -0.97533 l -0.172015,0.472713 H 40.197 v 1.217609 c -2.331838,-0.05283 -6.308146,0.01582 -8.506972,0 l 0.01371,0.493812 h 2.041968 l -0.266676,0.976814 -1.446082,0.175423 v 0.164602 h 1.446082 c 0.260073,1.622995 4.604269,2.328162 5.63189,1.152226 -1.474357,0.350935 -2.836288,0.565482 -3.597751,-1.018835 l 4.683831,0.03119 v 2.798288 c -1.904301,0 -4.546386,-0.495293 -6.353411,0.115715 -1.229426,0.415624 -1.920272,1.705794 -3.292077,1.842251 -2.674817,0.266164 -5.991592,-0.681794 -8.559415,0.124767 -2.357457,0.740392 -2.012115,4.335344 0.493812,4.483484 1.745467,0.103211 1.71558,-1.035119 3.020395,-1.577488 0.469678,-0.156305 1.248191,0.125937 2.612425,0.125937 l 0.0083,0.0037 c -1.211483,0.512905 -2.816888,1.546479 -2.913604,2.893887 -0.123207,1.716464 0,4.401914 0,6.151324 V 85.48264 c 0,1.345309 -0.183743,3.422501 0,4.60826 0.347974,0.936268 2.100438,2.682992 2.910458,3.239844 2.242542,1.548957 3.959569,1.768119 8.024115,2.704549 0.691499,0.345834 6.111232,-0.09227 6.857463,0 0.144095,0.01782 0.100822,-0.111324 0,1.290543 -3.516272,0.0097 -7.126918,0.547699 -10.643358,0.154951 -1.395347,-0.155879 -2.04767,-1.501842 -3.621287,-1.263829 -2.849297,0.430934 -2.757609,3.961862 -0.164602,4.770722 1.748092,0.54534 2.344125,-1.048035 3.785889,-1.442263 0.947136,-0.259085 2.150551,-0.07144 3.127481,-0.07144 5.217724,0.0138 9.464148,-1.298175 12.755486,4.562903 3.893218,4.17963 7.126253,9.17749 13.068622,10.22783 4.050906,0.71603 9.200857,0.71975 13.101808,-0.68087 3.315786,-1.19058 5.432804,-3.24599 9.067753,-3.24599 v 1.48143 c -3.983912,0.0329 -5.668375,2.29393 -9.311722,3.45192 -4.591137,1.45937 -11.510435,1.24308 -15.966595,-0.52262 -4.552285,-1.80374 -7.686349,-5.79522 -11.025999,-9.18359 -1.218725,-1.23651 -2.587246,-3.52911 -4.282171,-4.07823 -4.596445,-1.4402 -7.848999,-1.32674 -11.851491,0.75603 -1.157166,0.57628 -2.344558,0.0518 -3.464191,-0.37944 l -1.258669,3.26555 c 1.050502,0.58845 5.604455,-0.85073 6.73347,-1.41285 5.501112,-2.66108 8.583127,-0.86238 12.286141,3.27122 2.95695,3.35249 7.589326,7.4299 11.710684,9.33157 3.455695,1.59451 6.807489,1.88709 10.525565,1.88709 2.282728,0 4.544099,-0.25829 6.757858,-0.9207 2.339024,-0.70006 4.319916,-2.03115 6.625694,-2.79195 1.333787,-0.43999 2.690237,-0.59264 4.073571,-0.59264 v -3.56275 h 1.481436 v 5.10273 h 2.433703 v 4.31621 c 0,1.23914 -0.107962,3.10204 0.487412,4.22398 0.678005,1.27766 3.568198,1.34066 4.374429,0.16654 0.935202,-1.1846 0.02714,-3.6444 0.500165,-5.25434 0.285359,-0.97121 1.582421,-1.70329 1.897375,-2.72518 0.06747,-3.41791 0.128209,-8.12985 0.185487,-11.65609 -0.145347,-1.52621 0.986937,-3.03339 -0.848893,-4.40322 -2.593337,-1.935096 -6.445722,1.74382 -3.586053,3.10954 -0.160227,-0.92548 0.02057,-1.42795 0.350193,-1.95417 0.358908,-0.89539 2.236389,-1.07252 2.900563,0.19246 0.559161,1.06483 -0.566072,1.78349 -0.504674,2.79119 0.04579,0.75241 0.537914,1.36724 0.612644,2.12869 -0.0319,2.89895 0.0583,6.19313 0,9.04469 -0.113414,1.30333 -1.470862,1.68335 -1.906568,2.81813 -0.618586,1.61181 0.445585,3.72005 -0.341062,5.26634 -0.689358,1.35502 -3.129076,0.78178 -3.059528,-0.73692 0.0685,-1.49581 -0.009,-3.19153 -0.009,-4.69403 h 1.087408 v 4.44415 h 0.858377 c 0,-1.37378 -0.287727,-3.11892 0.09432,-4.44415 0.769545,-0.92804 1.604391,-1.66091 1.994831,-2.68113 0.31077,-0.81232 0.207921,-10.70571 0.243579,-11.56223 0.01313,-0.3153 -0.56255,0.6297 -1.560344,-0.31703 0.799269,0.98577 0.688516,1.68406 0.595565,8.69472 -0.01242,0.93651 -0.107433,2.14616 -0.538696,3.00457 -0.737263,1.46761 -1.420841,2.0024 -2.969106,2.00256 v -1.77528 c 0.595206,0 1.573448,0.17052 2.040596,-0.28674 0.45068,-0.44131 0.552848,-1.47757 0.540993,-2.04731 l -0.09589,-4.60832 c -0.01204,-0.57845 0.265081,-2.04159 -0.05063,-2.55795 -0.520315,-0.851 -2.007765,-0.20223 -2.764282,-0.5805 -1.250167,-0.625 -1.877472,-2.16404 -3.127471,-2.78905 -0.729032,-0.3646 -1.846276,-0.33738 -2.640326,-0.33738 -1.065477,0 -2.443472,-0.0618 -3.450028,0.3336 -2.418525,0.95026 -4.556083,2.87984 -7.114195,3.75125 -9.834434,3.35019 -19.695027,-1.47975 -22.369023,-11.617711 -1.991871,-7.552196 2.137549,-14.106071 7.426275,-19.09999 9.236429,-8.721385 23.156662,-13.419509 29.459353,-25.013888 5.827969,-10.72066 -1.810317,-25.52597 -13.98657,-27.324267 0.271266,1.33263 1.537895,1.483738 2.633663,1.954345 1.969158,0.845568 3.760543,1.98035 5.431933,3.31364 6.293637,5.020422 8.887794,13.35679 5.379265,20.739448 -2.87432,6.047881 -9.193634,11.168384 -15.253037,13.833651 -0.607879,0.267321 -1.197163,0.01972 -1.81377,0.330361 -3.921693,1.974427 -7.719929,4.299292 -11.192416,6.98744 -4.802162,3.717418 -8.507399,8.791505 -10.764445,14.403021 -0.535955,1.332798 0.289207,2.800573 -0.293494,3.949672 -0.842109,1.661019 -3.281376,1.133793 -3.551659,-0.657593 -0.229458,-1.520614 1.401767,-1.781179 2.031047,-2.81555 1.726206,-2.836624 2.576384,-5.964759 4.616651,-8.706733 C 56.541199,69.014545 64.5719,65.080179 72.36096,60.203455 77.86664,56.756482 83.609674,52.978656 85.799891,46.471528 87.908303,40.20785 84.76898,33.311603 79.60354,29.543488 77.826967,28.247564 75.820444,27.667002 73.842396,26.806621 72.800784,26.353465 70.919358,24.036004 72.36096,23.097758 c -0.958814,-0.574303 -2.372762,-0.331014 -3.456685,-0.329204 -4.087277,0.0066 -8.822777,2.231701 -11.193076,5.596535 m 9.876248,-4.938121 -0.164608,0.164602 0.164608,-0.164602 m -0.65842,0.164602 v 0.164608 h -0.493821 l 0.493813,-0.164638 m -12.016111,7.571759 -0.493812,0.658414 0.493812,-0.658414 m 13.662136,0.2395 c 4.131891,-0.09597 8.548546,2.277128 10.130885,6.180049 2.247665,5.544035 -0.945649,13.201578 -7.497222,13.491116 -4.9373,0.218098 -9.341114,-1.998952 -11.07802,-6.90695 -1.96833,-5.56164 2.484042,-12.625786 8.444357,-12.764215 m 29.534384,-2.665202 c 1.63057,3.445001 3.201612,4.323363 3.351062,12.889635 h -1.18758 c -0.16863,-8.12996 -2.819119,-11.292462 -4.6563,-14.996998 m -41.691326,5.685291 -0.32921,0.493812 0.32921,-0.493812 m 7.077972,5.761135 0.955149,0.139754 c 0.966229,-2.832828 2.840992,-4.356841 7.041438,-5.644197 -4.250074,-0.775928 -7.425246,3.098761 -7.996587,5.504443 M 93.202778,31.4478 c 2.166137,2.505025 2.802596,7.46149 2.802596,10.179432 H 94.982395 C 95.050466,36.404805 92.92751,33.093312 90.76424,29.458815 M 68.575044,35.515428 C 61.524889,36.64774 63.660627,47.110296 70.550293,46.092717 77.491478,45.06756 75.36183,34.425252 68.575044,35.515428 m 4.057762,2.450435 c 3.046186,4.441679 -1.460145,3.732091 -3.399347,3.732091 -1.142186,0 -3.437263,0.209538 -4.06029,-1.004907 -1.938536,-3.778652 5.658765,-6.401734 7.634014,-3.052043 m 5.24456,2.366846 c -4.253194,8.952683 -9.184849,11.45907 -16.006546,5.872279 2.518445,4.356906 8.744925,5.955783 12.949405,3.401622 2.423465,-1.472217 4.300628,-6.299863 3.063463,-9.248085 m 23.479395,2.981116 c 0.62049,5.149173 -0.32066,9.743659 -2.9243,13.167698 -0.786223,-0.439128 -1.110986,-1.844524 -2.49728,-1.021178 3.268684,-3.052213 4.62424,-7.587042 4.08253,-12.14652 h 1.33905 m -5.532086,0 c -0.0082,12.459538 -13.069613,19.546897 -22.163004,25.734856 -2.431528,1.654599 -4.82454,3.367634 -7.242574,5.041985 -5.058613,3.50294 -10.403144,7.078302 -12.195513,13.33704 -0.739402,2.581817 -0.355874,4.964795 -0.149795,7.571787 h -0.164602 c -3.357755,-9.008281 4.061932,-16.040825 10.863865,-20.575504 4.259464,-2.839586 8.443531,-5.786819 12.674514,-8.667391 4.915078,-3.346232 9.984386,-6.856905 13.093754,-12.072719 1.954016,-3.277755 3.58089,-6.709916 4.260376,-10.370054 h 1.022979 m -67.922923,4.410411 v 1.515334 h 9.547033 c 0.856106,0 3.282172,0.06136 3.550708,0.105415 0.258831,0.679353 0.110232,3.365592 0.110232,4.338894 H 40.592356 V 50.521224 L 40.447795,49.696053 H 30.386903 27.294784 V 47.42515 h 0.787667 m 24.525998,0.363108 c -5.219689,0.01724 -4.202631,2.154606 -4.049645,11.670993 0.01378,0.857148 0.497159,2.147678 0.141615,2.944197 -0.788072,1.904625 -3.653653,2.658945 -5.15895,2.668235 v -1.152227 h 1.824407 v -1.975248 c 0.546979,0 1.450485,0.161473 1.875988,-0.263862 0.596855,-0.597017 0.263862,-2.408982 0.263862,-3.192823 V 52.23261 c -0.49925,-4.549957 3.096512,-6.11643 5.102723,-4.444309 M 35.325025,85.482625 c 0,-2.033685 -0.718661,-5.746325 0.194072,-7.571784 0.853139,-1.706285 3.262121,-2.971763 4.744049,-4.093704 3.808777,-2.883863 7.70067,-5.653161 11.522281,-8.519412 1.399136,-1.049351 4.265165,-3.239552 4.721174,-3.847946 2.099592,-1.377834 0.725861,-4.902177 -1.080176,-5.096411 -2.032528,-0.218428 -3.12709,3.782099 -5.427276,3.069477 -0.342497,-0.106109 -0.518174,-2.205037 -0.518174,-2.910528 0,-1.788094 0.100423,-5.976831 0.122135,-6.252485 1.09195,-1.966917 3.979494,-1.753593 4.815986,-1.459544 1.180371,0.462208 2.22347,1.74299 3.127475,2.60288 1.717147,1.633863 3.516272,3.18229 5.267331,4.779939 1.320287,1.20474 3.879225,2.915137 2.785429,5.07721 -0.788121,1.557647 -3.392325,2.69572 -4.760677,3.707874 -3.888608,2.876124 -8.089959,5.61826 -11.686889,8.855696 -2.404534,2.164051 -4.241186,4.957874 -5.914554,7.708241 -0.984327,1.617893 -0.695287,2.977194 -2.644855,3.898811 -1.317985,0.623027 -3.796757,0.0517 -5.267331,0.0517 m 15.308176,-27.982685 1.47195,0.0021 c -0.04332,-3.468701 -0.414111,-5.166749 0.8212,-5.558114 0.578407,-0.387208 1.428601,0.02701 2.413187,1.003018 1.834181,1.706615 3.81669,3.499293 5.526139,5.169789 0.312053,0.373062 1.136965,1.279178 2.134242,2.331263 -1.018077,1.68917 -2.93724,3.034794 -4.507566,4.211874 -5.258112,3.942105 -11.217749,7.477025 -14.914095,13.021712 -1.404075,2.106107 -4.231257,4.200581 -2.944895,6.927406 1.610161,-3.57915 3.997552,-7.195071 6.735738,-10.152345 2.494904,-2.694736 5.769374,-4.823886 8.696033,-7.019044 2.066278,-1.549584 4.153621,-3.073325 6.254956,-4.575005 0.957831,-0.684425 2.208987,-1.272719 2.38478,-2.56437 0.197363,-1.448352 -1.625787,-2.485846 -2.549388,-3.32006 -2.295239,-2.073028 -4.503399,-4.297649 -6.91337,-6.237673 -1.004079,-0.808204 -2.643044,-1.252799 -3.778647,-0.388791 -1.607361,1.222675 -0.830264,5.31605 -0.830264,7.148259 M 41.290424,54.6574 h -0.698068 v -0.943341 c 0.643763,0.107323 0.648683,0.307311 0.698068,0.943341 m 1.406428,-0.943341 V 54.6574 h -0.654613 v -0.943341 h 0.654613 m 1.872679,0 v 1.646038 L 43.541469,54.6574 v -0.943341 h 1.028062 m -3.279107,1.416054 v 1.217609 h -0.698068 v -1.217609 h 0.698068 m 1.406428,0 v 2.688235 h -2.104496 v -0.976814 h 1.449883 v -1.711421 h 0.654613 m 1.872679,2.205233 c -0.0322,0.118324 0.02457,0.229753 0,0.483002 h -1.028062 v -0.976814 c 0,0 0.0028,-1.627799 0.0019,-1.711421 l 1.026162,0.638052 c 0.02352,0.304442 0.01707,1.37998 0,1.58536 M 40.197,56.841534 v 0.976814 H 35.530127 C 35.814308,56.52281 38.689061,56.841534 40.197,56.841534 m 1.845239,13.168291 v -3.550578 h 0.654613 v 0.587705 h 0.844617 v -0.587705 c 1.816239,0.04031 4.966574,-1.242667 5.88309,-2.973146 0.356366,-0.672736 0.488848,-1.532227 0.488848,-2.27245 0.939888,0.174475 1.962123,-0.455183 2.760944,-1.085782 0.946639,-0.747136 1.500044,-1.729299 2.218949,-1.127229 0.671426,0.477643 0.01237,2.248463 -1.132624,3.083337 -3.657501,2.666915 -7.489104,6.25923 -11.718437,7.925848 m 2.527292,-11.686867 c 0.16379,1.040766 0.214366,1.554024 -1.028062,1.252306 v -1.252306 h 1.028062 m 40.207414,17.577258 c 0.461144,-3.101213 -3.720886,-3.689524 -2.704371,-0.65842 h 0.164602 c 0.121153,-0.406902 0.388306,-0.987127 0.941867,-0.756026 0.740883,0.309296 -5.742982,4.467385 -5.217566,4.890418 4.697635,-1.625812 8.984038,-2.576836 12.5059,-2.565088 1.419709,-0.328059 2.401572,-1.53543 3.456685,-2.451778 2.404204,-2.087672 4.673929,-4.331393 7.077968,-6.419557 0.9027,-0.784009 1.33871,-1.208591 2.46296,-1.666849 1.702,-0.693807 5.11196,-1.172078 6.91947,-1.008789 1.31733,0.119007 2.62198,0.07177 2.79827,-1.509257 l -0.72212,-0.582209 c -0.48608,1.413618 -0.88164,0.979947 -2.12128,0.952953 -1.9713,-0.04311 -4.07342,0.7812 -6.04521,0.7812 v -0.164608 c 1.68768,-0.786808 4.63202,-2.619292 4.65375,-4.573307 1.81695,0.03069 2.22889,-2.47039 0.0143,-2.668473 -3.06649,-0.03108 -0.66114,2.461187 -1.07643,3.290624 -0.88458,1.766531 -3.77089,2.876925 -5.19077,4.245116 -2.65818,2.561565 -5.469595,4.855617 -8.207451,7.331919 -1.231074,1.113387 -1.85282,1.829128 -3.43631,2.431253 -1.895579,0.720962 -4.25346,1.10059 -6.274304,1.10059 M 108.89661,58.136202 c 0.90302,0 0.75125,1.525551 -0.15176,1.426621 -0.88508,-0.09695 -0.68147,-1.426621 0.15176,-1.426621 m -66.199758,0.186756 v 1.316834 H 42.042239 V 58.81677 h -0.62686 v 2.304459 l -0.823023,0.164602 v -2.962873 h 2.104496 m 0,1.646044 v 1.316829 h -0.654613 v -1.316829 h 0.654613 m -3.527394,21.927691 h 0.164609 c 4.121519,-8.81718 14.277977,-14.685608 21.833791,-20.281652 -0.680139,-0.0344 -3.398769,0.612157 -3.927308,1.008527 -1.327696,0.995526 -2.62313,2.032864 -3.950497,3.028389 -4.61484,3.461127 -9.095363,6.709095 -12.288677,11.600464 -0.834874,1.27881 -2.349772,2.744968 -1.831918,4.644272 M 40.197,61.944251 v 1.316828 c -2.133928,0 -4.781443,-0.450189 -6.847224,0.09185 -1.090828,0.286246 -1.579322,1.263152 -2.66834,1.509564 -1.586788,0.359004 -3.462993,-0.01941 -5.067386,0.233596 -1.541192,0.24312 -1.897558,3.131096 -3.933874,1.784797 -1.323914,-0.8752 -0.864667,-2.841228 0.641791,-3.167309 0.70401,-0.152259 1.428761,0.185014 2.139191,0.203454 2.074011,0.05419 4.361517,0.232419 6.419558,-0.028 1.372471,-0.17366 2.016072,-1.540202 3.292083,-1.874016 1.813769,-0.474558 4.149855,-0.07078 6.024201,-0.07078 m 1.218379,0 v 1.316829 h -0.823023 v -1.316829 h 0.823023 m 1.281473,0 v 1.316829 h -0.654613 v -1.316829 h 0.654613 m 2.010603,0 v 1.316829 h -1.165986 v -1.316829 h 1.165986 m 68.146065,1.481437 0.16461,0.164602 -0.16461,-0.164602 M 40.197,63.919484 v 1.152199 h -2.238306 l -5.869252,-0.01579 c 1.923892,-2.201248 5.42402,-1.136356 8.107558,-1.136356 m 1.218379,0.164602 -0.163643,4.736011 -0.79928,0.0237 0.1399,-4.924313 0.823023,-0.02236 m 1.281473,0.02236 v 1.152151 h -0.654613 v -1.152151 h 0.654613 m -4.464193,3.12742 c 0,0 0.887865,-0.0085 1.555414,0 0,1.121774 -0.07806,0.915931 -0.592285,1.932036 -0.499411,0.986965 -1.532941,1.643848 -2.368307,2.328441 -2.231371,1.828912 -5.274473,3.911238 -6.907839,6.30244 -0.455458,0.666806 -0.702327,1.956787 -0.702327,2.722692 0,1.902989 -0.448241,6.660517 0.573295,8.293883 0.871411,1.393377 1.367975,1.518717 2.965689,2.524567 -0.835036,0 -0.858031,0.0694 -1.662613,-0.182931 -3.585739,-1.124249 -2.943726,-5.350646 -2.943726,-8.293604 0,-1.417072 0.269748,-9.148661 0.297008,-10.465865 0.623687,-1.425961 1.491989,-0.825328 2.600922,-1.931305 -1.33724,0.914375 -2.66966,0.388381 -3.46124,1.82011 -0.410852,0.743353 -0.362576,7.789527 -0.362576,8.611722 v 5.761144 c 0,0.843596 -0.15374,1.877969 0.305837,2.631201 0.542369,0.889024 2.107587,2.408485 3.150848,2.5986 0.983835,0.179253 5.19396,1.008356 6.112448,1.467603 0.174604,-0.01307 5.328848,0.0084 6.212254,-0.03236 v 0 c 0,0.894293 0.0015,1.241543 0,1.441993 -0.0011,0.146131 -1.197104,-1.7e-4 -1.670013,0 -1.436332,4.91e-4 -3.357068,0.0022 -4.555267,0 C 35.478075,94.44914 31.536716,93.174895 30.660675,92.525778 29.650505,92.27245 27.828481,91.255013 27.132372,90.51561 26.43097,89.77044 26.60101,88.735578 26.60101,87.787126 V 81.36754 73.137336 c 0,-1.076178 -0.275876,-2.603869 0.09925,-3.621287 0.472741,-1.281772 3.445344,-2.969919 4.732715,-3.413028 1.951707,-0.671914 3.510539,0.896674 5.575822,0.896674 m 73.048923,1.815453 c -2.09293,0.820553 -0.75487,4.023584 1.31189,3.212414 2.06892,-0.812154 0.76097,-4.024897 -1.31189,-3.212414 m 0.42133,0.760898 c 1.09384,-0.281612 1.55971,1.409849 0.46924,1.690618 -1.10366,0.284131 -1.57565,-1.405771 -0.46924,-1.690618 M 43.005461,91.677477 c -0.473051,-0.02051 -3.966427,-0.0031 -4.378354,0 -1.936839,0.01466 -2.307558,0.300906 -4.125117,-0.368384 -1.184328,-0.436366 -3.146076,-2.331783 -3.851243,-3.372083 -0.64953,-0.958654 -0.263862,-2.980649 -0.263862,-4.10045 0,-1.605382 -0.182036,-3.957425 0.427168,-5.444622 0.261392,-0.63817 0.724896,-1.363074 1.218877,-1.810301 1.292465,-1.170336 2.609629,-2.316142 3.950497,-3.43101 1.204901,-1.001777 2.421654,-1.98858 3.621286,-2.996946 0.340564,-0.286246 1.044742,-0.996838 1.543494,-0.625821 0.830917,0.618088 -1.330005,2.020023 -1.708096,2.312359 -2.421822,1.87286 -5.933646,3.994774 -7.63944,6.565067 -0.727059,1.095439 -0.426162,2.866083 -0.426162,4.11444 0,1.167045 0.142276,3.318645 0.548518,4.420666 2.054774,3.236681 2.980483,3.105015 3.717825,3.3679 1.585361,0.30855 3.043263,0.223107 7.364609,0.223107 M 121.08371,74.454127 h -13.49754 c -1.98463,0 -4.49714,-0.412501 -6.41955,0.09185 -0.79849,0.209377 -1.694409,0.711684 -1.988183,0.924724 -0.229263,0.197474 -1.720232,1.344927 -2.005852,1.496613 -0.234174,0.185469 -1.603409,1.840287 -1.715267,1.948394 -0.30062,0.236143 -1.587655,0.757593 -2.24351,0.918728 1.595509,-1.546778 3.104236,-3.042113 4.825172,-4.443712 0.730513,-0.594883 1.59767,-1.250829 2.48126,-1.618064 1.33593,-0.555041 2.71134,-0.306326 4.10306,-0.306158 2.96222,1.62e-4 5.85342,0.04057 8.80213,0.04057 2.01097,0 4.15971,-0.02565 6.17018,0.02766 0.88656,0.02352 1.41551,-0.01444 1.4881,0.919193 m -8.22115,4.613521 c -1.67698,0.903675 -0.21399,3.49224 1.46514,2.599589 1.75254,-0.931658 0.19802,-3.49586 -1.46514,-2.599589 m 0.67917,1.93014 c -0.8647,-0.07332 -0.77654,-1.384902 0.10796,-1.296736 0.83151,0.08289 0.7118,1.366322 -0.10796,1.296736 m -24.555808,-0.08874 v 0.670742 h -0.987624 v -0.670742 h 0.987624 m 1.396157,0 c 0.01234,0.149042 -0.0031,0.204082 -0.0031,0.204082 l -0.04166,6.015523 0.561758,0.06468 c 0,-1.092309 -0.07377,-3.686023 0.212459,-4.448424 0.348795,-0.440483 0.675919,-0.266496 1.16644,-0.266496 h 3.948742 1.854108 c -0.677345,0.463036 -1.667117,0.744505 -1.837279,0.855332 -0.944829,0.135635 -3.604265,-0.220111 -4.37478,0.460363 -0.553394,0.986737 0.278391,3.852909 -0.795363,4.529245 -0.71751,0.365747 -1.826778,0.0573 -2.581323,-0.0145 -1.257406,-0.119672 -2.72252,-0.277215 -3.950494,0.0191 -2.294873,0.553762 -3.490013,1.284064 -5.390607,2.327071 1.227124,-4.9108 6.607198,-3.526382 10.493327,-3.526382 0,-1.925205 -0.0711,-4.310192 0,-6.219594 m -0.658418,1.481445 v 3.915142 h -0.987624 v -3.915142 h 0.987624 m 5.596535,1.94008 c -1.123913,2.05755 0.195223,4.878699 -1.156998,6.718317 -0.998654,1.358803 -2.795639,1.18268 -4.274935,1.18268 -3.196111,0 -6.193493,-0.655162 -9.338587,-0.07131 -0.306994,-0.581342 -1.185336,-0.505098 1.272994,-1.74345 2.392682,-1.656907 4.759198,-1.312722 7.571781,-1.312722 0.906804,0 2.502805,0.295634 3.207312,-0.413813 0.674546,-0.679156 0.631251,-3.379882 0.651501,-4.358455 l 2.066932,-0.0012 m 1.077982,2.61827 c 3.491064,0.0852 3.536879,-0.04788 4.003649,0.361606 l 0.833935,0.791489 -0.709962,1.301897 -1.748919,0.194066 -0.551685,8.291512 c -4.689569,0 -9.477308,-0.615043 -14.098067,0.156978 -1.541192,0.257442 -4.0514,1.629577 -3.950497,3.403024 l -1.975249,0.65842 c 0,-2.03105 0.918488,-2.468734 2.469061,-3.642691 3.363024,-2.54593 8.114479,-1.624643 12.180692,-1.624643 1.037829,0 3.3357,0.431425 4.208268,-0.169212 0.594715,-0.40921 0.59508,-1.770395 0.59508,-2.38717 0,-1.988736 0.104194,-3.709483 0.260396,-5.68819 l 2.343438,-0.150228 c 1.136874,-0.947067 -2.622963,-0.527455 -3.500712,-0.583998 -0.132404,1.483436 -0.04866,4.63577 -0.04866,6.170205 0,0.533809 -0.100303,1.573066 -0.574531,1.956762 -0.686565,0.555533 -2.262399,0.193416 -3.118668,0.193416 -3.456523,0 -6.913535,-0.0168 -10.370052,1.62e-4 -3.725318,0.0181 -6.091834,4.597397 -9.38243,5.924107 -2.401741,0.9682 -5.373006,-1.10877 -7.736392,-0.20559 -0.995686,0.38057 -1.695751,1.52571 -2.304458,2.34692 l -1.481436,-0.82302 c 0.79866,-1.13379 2.033355,-2.71711 3.456685,-3.03924 2.357133,-0.533495 5.318027,1.26728 7.571789,0.25414 3.215704,-1.445389 5.312591,-5.767233 9.05322,-5.932495 3.223935,-0.142385 6.484414,-0.0064 9.711638,-0.0064 0.901366,0 2.830366,0.361306 3.549848,-0.263855 0.573481,-0.498422 0.400649,-1.530821 0.400649,-2.205199 0,-1.620855 -0.01239,-3.78383 0.199099,-5.306972 m -27.029527,4.575583 c 1.587117,-0.0772 1.67699,2.472843 4.98e-4,2.430868 -1.468925,-0.03652 -1.453453,-2.360257 -4.98e-4,-2.430868 m 37.365112,0.23736 c 0,2.52387 0.012,5.047901 -1.7e-4,7.571777 -0.007,1.459551 -0.23472,2.716141 -1.81047,3.127481 v 0.16461 c 0.7896,-0.10914 1.85375,-0.34099 2.16962,-1.15249 0.74056,-1.902989 0.57675,-7.061902 0.47731,-9.094629 -0.26891,-5.496751 -0.26969,-7.708409 -1.20128,-6.066389 m -32.062,14.338258 0.65842,0.65841 -0.65842,-0.65841 m 17.777233,14.48515 v -5.59653 l -0.381549,-1.97065 -3.568945,-0.16921 c -0.0086,-3.10854 -3.078631,-2.6705 -4.874107,-1.82198 -2.207177,0.50945 -7.708191,6.12855 -9.817103,7.03057 -5.327242,2.27813 -14.581079,0.52449 -16.831504,-3.75587 0.406597,-0.35735 1.495977,-2.28537 2.107044,-2.57538 2.225449,0.77002 9.617596,2.47439 11.967644,2.24691 2.462808,-0.23835 4.933349,-1.02861 7.077972,-2.25557 1.381031,-0.78993 2.518445,-2.06594 3.950497,-2.74642 1.170006,-0.55587 4.54044,-0.58813 5.761143,-0.1381 1.366381,0.50385 2.00372,2.21491 3.29208,2.859 0.754215,0.37711 1.524563,-0.14394 2.020353,0.71628 0.320482,0.55603 0.236523,1.3109 0.236523,1.92553 1.61e-4,1.57328 -0.06275,4.79851 -0.07636,5.38407 -0.226827,0.50204 -0.386174,0.85171 -0.863693,0.86735 M 65.51239,85.255059 c -2.084781,0.621909 -1.178337,3.96767 0.93464,3.337346 2.084792,-0.621909 1.178347,-3.96767 -0.93464,-3.337346 m 0.757182,0.722672 c 0.726488,0.09304 1.194024,1.702701 -0.458253,2.00043 -1.294879,-0.435793 -0.915369,-2.129363 0.400644,-2.028573 M 32.974776,67.46059 c -2.084781,0.621909 -1.178337,3.96767 0.93464,3.337346 2.084792,-0.621909 1.178347,-3.96767 -0.93464,-3.337346 m 0.757182,0.722672 c 0.726488,0.09304 1.194024,1.702701 -0.458253,2.00043 -1.294879,-0.435793 -0.915369,-2.129363 0.400644,-2.028573"
       id="path3412"
       sodipodi:nodetypes="ccsccccccccccccccssscscccccccccccccsccccccssscccccccccssscccccccccccsscccccccsscccscssccsccccccccscscccccsccccccccccssccccccccccsccccccccccccccccccccccccccccccccccsscccccccccccsccccsccccsccscccccscccsccccccccccccccccccccccsccscsccccccscccccccccccccccccccccccccccccssscccscccccccscccccsccccccsscccccccsscsccccccccccssccccccscsccccsssccsccccccccccccccccccccccccccccccccccccccccccccccccccccccccccsccccsccccccccccccccsccccsccccccccccsccccccscccscsccsscccccccccccccccccccccccccccccccccccccccccccccccccccccccccccccccccccccccccccccccccccscccccscccccccccccccscccccccccccccccccccsscccccccccscccccccccccccccccccccccccccccccccccccccsscccscccsscccccsscccscsccccccccccsccscccscccsccccsccccccccssccsccscccccccccccscccccssccccccccccsccscccccccccccccscscccscscccccsccscscccccccccscccccccccccccccccsccccscccccscccc" /></g></svg>
