<?xml version="1.0" encoding="UTF-8" standalone="no"?>
<!-- Created with Inkscape (http://www.inkscape.org/) -->

<svg
   width="512"
   height="512"
   viewBox="0 0 135.46666 135.46667"
   version="1.1"
   id="svg5"
   xml:space="preserve"
   inkscape:version="1.2.2 (732a01da63, 2022-12-09, custom)"
   sodipodi:docname="icon.svg"
   inkscape:export-filename="../db161e52/logo.png"
   inkscape:export-xdpi="5.6199999"
   inkscape:export-ydpi="5.6199999"
   xmlns:inkscape="http://www.inkscape.org/namespaces/inkscape"
   xmlns:sodipodi="http://sodipodi.sourceforge.net/DTD/sodipodi-0.dtd"
   xmlns="http://www.w3.org/2000/svg"
   xmlns:svg="http://www.w3.org/2000/svg"><sodipodi:namedview
     id="namedview7"
     pagecolor="#ffffff"
     bordercolor="#666666"
     borderopacity="1.0"
     inkscape:showpageshadow="2"
     inkscape:pageopacity="0.0"
     inkscape:pagecheckerboard="0"
     inkscape:deskcolor="#d1d1d1"
     inkscape:document-units="mm"
     showgrid="false"
     inkscape:zoom="1.4142136"
     inkscape:cx="144.24978"
     inkscape:cy="253.49777"
     inkscape:window-width="1869"
     inkscape:window-height="1016"
     inkscape:window-x="1011"
     inkscape:window-y="27"
     inkscape:window-maximized="1"
     inkscape:current-layer="g7069" /><defs
     id="defs2" /><g
     inkscape:label="Layer 1"
     inkscape:groupmode="layer"
     id="layer1"><g
       id="g6332"
       transform="matrix(-1,0,0,1,136.34861,0)"><g
         id="g7069"
         transform="rotate(19.159102,68.262497,67.733334)"><path
           style="fill:#010101;stroke-width:0.41133889;fill-opacity:1;stroke:#fdfdfd;stroke-opacity:1;stroke-dasharray:none"
           d="m 63.251389,134.43285 c 0.521645,-1.62881 1.735108,-4.16373 2.050997,-4.28441 0.814691,-0.3122 1.156779,-1.1002 0.77239,-1.7832 -0.136464,-0.24604 0.147263,-0.95728 2.015298,-5.02659 2.452692,-5.34327 2.507415,-5.53157 2.02444,-6.9703 -0.536295,-1.58542 -2.204512,-2.85328 -3.277452,-2.48298 -0.117068,0.0406 -0.233447,0.0158 -0.256902,-0.0523 -0.02407,-0.0688 0.03989,-0.19451 0.142035,-0.2787 0.22086,-0.18159 0.817952,-1.03171 0.830614,-1.18283 0.0083,-0.0612 0.702693,-0.3512 1.550826,-0.65095 2.101958,-0.74487 5.138232,-2.17769 5.362084,-2.5329 0.04883,-0.0752 0.266875,-0.24417 0.486015,-0.37204 1.069563,-0.62351 4.302589,-3.4614 4.504341,-3.95375 0.01926,-0.0502 0.238468,-0.30711 0.485259,-0.57124 1.398755,-1.50066 3.476632,-5.038947 4.299398,-7.320972 0.595516,-1.651481 0.633071,-1.692936 0.883617,-0.97181 1.021561,2.940265 6.23059,3.367485 7.401511,0.607072 0.200225,-0.471502 1.141812,-0.261991 1.5502,0.344461 1.982042,2.943552 6.75166,2.332612 8.35137,-1.069611 0.39742,-0.845107 0.72449,-2.679962 0.56161,-3.148802 -0.0704,-0.202701 0.0378,-0.278293 0.90959,-0.632797 1.28257,-0.522057 2.94137,-2.446432 2.70241,-3.134227 -0.0227,-0.06466 0.0193,-0.286271 0.0918,-0.49647 0.0726,-0.210198 0.12429,-0.960578 0.11528,-1.66768 -0.0179,-1.392984 -0.0179,-1.393046 0.51319,-1.242427 0.19802,0.0564 0.56202,0.04608 0.80809,-0.02339 0.44241,-0.124564 0.45114,-0.1203 0.75139,0.488148 0.68473,1.386161 1.6176,1.699264 3.1383,1.053392 1.37829,-0.585199 2.087,-0.08508 4.88123,3.444195 2.20592,2.786319 2.13979,2.720825 2.67789,2.653872 0.23448,-0.03026 0.49695,-0.0282 0.58258,0.0015 0.0849,0.02889 1.43278,0.01238 2.99373,-0.03852 1.56107,-0.0509 3.02278,-0.09272 3.24841,-0.09244 0.66478,5.85e-4 3.38804,-0.04952 3.53136,-0.06466 1.97582,-0.214601 3.79643,-0.06053 4.2728,0.360831 0.60089,0.531756 1.27688,0.395979 1.59506,-0.320456 0.30092,-0.677643 0.008,-1.178762 -0.93771,-1.60178 -1.02008,-0.45637 -1.86404,-1.352602 -4.12623,-4.381434 -0.64655,-0.86548 -1.68436,-2.227141 -2.30652,-3.025882 -0.62213,-0.798747 -1.5068,-1.936914 -1.96581,-2.529184 -0.45913,-0.592284 -0.89677,-1.124713 -0.97275,-1.183075 -0.0758,-0.05915 -1.24333,-0.100284 -2.59429,-0.09382 -4.66463,0.02339 -4.40925,0.04608 -5.54733,-0.488078 -1.03711,-0.486566 -1.03711,-0.486566 -0.93556,-0.891624 0.40169,-1.602358 -1.47712,-3.24844 -3.0742,-2.69356 -0.46545,0.161707 -0.48443,0.153728 -0.6255,-0.252362 -0.23008,-0.662235 -0.89555,-1.26247 -1.39268,-1.256197 -0.0832,-2.14e-4 0.005,-0.337308 0.19479,-0.752148 0.68941,-1.504625 0.71847,-1.369667 -1.94708,-9.034538 -2.32982,-6.699773 -2.32982,-6.699773 -2.23624,-7.39228 0.27561,-2.034757 -0.57936,-3.714439 -2.35915,-4.634876 -0.44859,-0.232278 -0.89275,-0.531755 -0.98741,-0.666362 -0.60776,-0.864029 -5.349395,-7.238469 -6.298805,-8.467807 -0.400043,-0.517793 -0.748203,-1.002886 -0.774413,-1.07832 -0.16363,-0.47102 -1.330278,-1.401816 -1.881437,-1.50078 -0.514284,-0.09217 -0.609548,-0.161019 -0.738707,-0.532718 -0.72103,-2.075283 -3.813706,-2.815119 -6.154276,-1.472332 -0.719166,0.412969 -0.907127,0.461529 -2.409186,0.626606 -0.07147,0.01032 -0.290605,0.03577 -0.483402,0.06534 -0.663542,0.09581 -2.803508,0.310689 -3.407801,0.340884 -0.55239,0.0282 -1.637334,0.126147 -2.121045,0.191559 -0.108125,0.01582 -0.465999,0.04608 -0.795376,0.06954 -0.329674,0.02339 -0.687548,0.05365 -0.795886,0.06809 -0.108126,0.01582 -0.759679,0.08701 -1.447557,0.162876 -0.687946,0.07594 -1.424651,0.168035 -1.637223,0.205453 -0.212675,0.03783 -0.897374,0.102073 -1.521752,0.144236 -0.624611,0.04196 -1.395687,0.122295 -1.713956,0.178284 -0.489248,0.08625 -0.745015,0.01995 -1.652796,-0.429545 -3.164505,-1.566454 -7.523895,-0.189289 -9.083373,2.869732 -0.513941,1.00801 -3.872536,2.39131 -4.189553,1.725752 -1.184925,-2.488334 -2.912356,-4.594494 -5.393228,-6.575773 -1.866811,-1.490861 -2.183079,-1.471045 -1.423689,0.08907 0.29033,0.596686 0.847019,1.804977 1.237049,2.684447 0.389995,0.879401 0.946209,2.03389 1.23777,2.564992 0.59084,1.080204 0.600125,1.163554 0.107163,1.02317 -0.794442,-0.226431 -0.841702,-0.270452 -1.25033,-1.160686 C 51.176499,43.447692 50.86746,42.84747 50.717034,42.599002 50.5653,42.350973 50.302277,41.858018 50.12929,41.504615 49.955614,41.151349 49.772103,40.784705 49.720242,40.68993 49.672092,40.5937 49.452335,40.147307 49.241105,39.694473 49.032419,39.24051 48.753232,38.661151 48.626879,38.404393 48.501146,38.147354 48.231863,37.58812 48.029024,37.161478 c -0.427894,-0.90256 -0.724448,-1.15669 -2.795784,-2.400211 -2.437332,-1.462812 -3.181989,-1.782972 -2.808426,-1.207403 0.228495,0.351684 1.383066,2.706533 2.419312,4.934581 0.481406,1.035585 1.028039,2.183499 1.214687,2.550954 0.186056,0.367847 0.312546,0.677367 0.27616,0.690023 -0.141622,0.04952 -1.424624,-0.492687 -1.402394,-0.592627 0.01444,-0.06328 -0.202357,-0.519512 -0.475422,-1.020412 -0.274992,-0.500116 -0.636992,-1.200477 -0.8048,-1.55562 -0.16721,-0.355535 -0.511052,-1.066358 -0.762438,-1.580389 -0.251399,-0.514078 -0.778133,-1.592047 -1.170178,-2.395595 -1.181218,-2.418988 -0.937563,-2.201822 -3.980124,-3.549527 -4.837165,-2.142635 -4.491535,-2.138935 -3.403021,-0.03645 0.15022,0.285653 0.308213,0.599988 0.354985,0.696799 0.794806,1.63584 2.986654,6.030591 3.223196,6.462846 0.249611,0.456508 0.249611,0.456508 -0.111289,0.367091 -0.198987,-0.04884 -0.499841,-0.120507 -0.668701,-0.157924 -0.313441,-0.07023 -0.452381,-0.287716 -1.644597,-2.575468 -0.654944,-1.256356 -0.711971,-1.363897 -1.188213,-2.252583 -0.519856,-0.97016 -0.574881,-1.078313 -1.555001,-3.081932 -0.424455,-0.867441 -0.852961,-1.652335 -0.951904,-1.744297 -0.552665,-0.511396 -6.43316,-2.437374 -6.571309,-2.151996 -0.04815,0.0998 0.783216,1.809963 2.053933,4.224576 1.544704,2.934938 2.110878,4.055235 2.083833,4.119904 -0.05778,0.137358 -1.426921,-0.59359 -1.522123,-0.81293 -0.05021,-0.123808 -0.5083,-0.964265 -1.012178,-1.869563 -0.503211,-0.905531 -1.224606,-2.246269 -1.60178,-2.979763 -0.573025,-1.11269 -1.442198,-2.650378 -1.782017,-3.154813 -0.239843,-0.354985 -6.603286,-1.318734 -9.384997,-1.421048 -0.903977,-0.03301 -0.971542,-0.227531 1.3937,4.004047 1.169607,2.092149 1.138215,1.966161 0.463042,1.852402 -0.486359,-0.08151 -0.612987,-0.173675 -0.915079,-0.661616 -0.569448,-0.920093 -0.666156,-1.087454 -1.195091,-2.05024 -0.277399,-0.505068 -0.702267,-1.21858 -0.944112,-1.585644 -0.241769,-0.366746 -0.554797,-0.882077 -0.694831,-1.144777 -0.325684,-0.608447 -0.844852,-0.635616 -4.9091325,-0.255663 -0.480168,0.0454 -0.486152,0.10338 -0.06974,0.694136 0.144856,0.205247 0.3614511,0.560369 0.4815451,0.788623 0.116242,0.229733 0.401825,0.687066 0.625711,1.019291 0.493994,0.732234 0.490005,0.743817 -0.209785,0.647378 -0.553009,-0.07656 -0.567385,-0.09052 -1.4029171,-1.373953 -0.464678,-0.712983 -0.9310279,-1.35521 -1.0367806,-1.426963 -0.4344285,-0.294663 -4.95207242,0.567453 -7.38047,1.408666 l -1.4030542,0.486084 1.0368508,2.749556 c 0.5692416,1.512659 1.11595708,2.845211 1.21260298,2.961996 0.2023573,0.245003 0.4397248,0.523708 0.7649684,0.896068 1.58605612,1.816394 3.33494042,1.985123 7.08209262,0.683213 2.6253421,-0.912134 3.6462835,-0.979225 3.8979785,-0.254975 0.04402,0.127316 -5.9768523,2.091137 -6.7029105,2.183932 -0.7329159,0.09588 -2.1928254,-0.0029 -2.6651804,-0.179797 -0.2854463,-0.106888 -0.3672971,0.0619 -0.147813,0.299684 0.1958917,0.213775 0.1693418,0.179315 0.8481191,1.112346 2.3362776,3.213677 4.8254173,5.314335 6.5597674,5.535958 0.668426,0.08598 0.671727,0.08481 6.6586564,-1.952301 5.989838,-2.037398 5.989838,-2.037398 6.786577,-1.711302 0.797234,0.326647 0.797234,0.326647 -5.811025,2.624785 -4.052718,1.40974 -6.7468144,2.293124 -6.9658174,2.288384 -0.561882,-0.01582 0.509058,0.761 4.8852854,3.54677 3.836411,2.441768 2.778919,2.509904 12.33548,-0.794593 6.594021,-2.276444 6.594021,-2.276444 7.388125,-1.947246 0.795563,0.332356 0.795563,0.332356 -6.744337,2.958523 -4.769903,1.661387 -7.510806,2.660497 -7.458215,2.728873 0.430645,0.545787 6.339754,3.277205 8.94759,4.136123 3.518397,1.158863 3.221065,1.201728 11.440541,-1.648119 6.770419,-2.347998 6.770419,-2.347998 7.650928,-1.977392 0.880323,0.369842 0.880323,0.369842 -6.363793,2.892567 l -7.244632,2.521419 1.384297,0.478931 c 1.691334,0.585267 6.211482,1.775028 7.262007,1.911519 0.7673,0.09967 0.7673,0.09967 6.750631,-1.929637 6.214171,-2.108065 6.854018,-2.244446 7.106215,-1.518574 0.011,0.03233 -2.39713,0.919502 -5.353424,1.967014 -5.375386,1.904009 -5.375386,1.904009 -4.710028,2.082065 0.366266,0.0985 0.795398,0.233378 0.953294,0.300097 0.158543,0.06672 0.512772,0.157511 0.787385,0.201945 0.718863,0.11576 0.713079,0.260478 -0.101316,2.55096 -0.0454,0.128692 -0.934084,2.928417 -1.974043,6.221724 -1.039953,3.293299 -2.283715,7.231494 -2.764007,8.751568 -1.236608,3.914148 -1.471382,4.729768 -2.60122,9.036725 -1.340338,5.109047 -1.520108,5.881169 -1.942217,8.338696 -0.692321,4.030866 -0.601776,3.759986 -1.205897,3.606026 -0.655151,-0.16707 -2.362614,0.49172 -2.977851,1.14894 -0.306287,0.327737 -1.523595,2.863667 -3.567947,7.434627 -0.634653,1.41905 -1.536643,3.3817 -2.004383,4.36156 -0.569723,1.19348 -0.819196,1.87126 -0.755896,2.05345 0.05159,0.14946 0.01445,0.41723 -0.08275,0.59379 -1.842304,3.3497 -1.842551,3.34876 1.571083,6.41232 1.987806,1.78399 2.128871,1.90414 3.059213,2.60512 0.474391,0.35726 1.065588,0.82221 1.313768,1.0327 3.249657,2.75652 13.724316,8.06123 16.915172,8.56635 0.162601,0.0255 0.392746,0.0929 0.512014,0.14905 0.349001,0.16418 3.302503,0.87948 4.899454,1.18641 1.268647,0.2437 6.145623,0.82932 6.299668,0.75628 0.02545,-0.0117 0.121125,-0.27581 0.221823,-0.58967 z m -3.794323,-1.36474 c -0.720342,-0.009 -0.696145,-0.22849 0.244383,-2.2071 1.003753,-2.11197 0.822333,-1.95552 1.717761,-1.48181 0.910498,0.48161 0.90494,0.35037 0.08302,2.00147 -0.767589,1.54132 -0.960269,1.70037 -2.044992,1.68739 z m 4.356288,-3.98547 c -0.011,-0.0323 0.0057,-0.0674 0.03783,-0.0788 0.03233,-0.011 0.06741,0.006 0.07876,0.0378 0.01101,0.0323 -0.0057,0.0674 -0.03783,0.0788 -0.03233,0.011 -0.06741,-0.006 -0.07876,-0.0378 z m -2.156,-0.91505 c -1.389387,-0.73519 -1.628157,-1.2558 -0.720617,-1.57111 0.196236,-0.0681 3.146484,1.2958 3.21224,1.48506 0.0227,0.0647 0.05571,0.15545 0.07339,0.20098 0.01788,0.0447 -0.04608,0.12367 -0.142654,0.17409 -0.142379,0.0786 -0.166591,0.0358 -0.12766,-0.22072 0.04471,-0.30753 0.04265,-0.30684 -0.158543,0.0697 -0.112459,0.20869 -0.264399,0.35402 -0.338546,0.32293 -0.07655,-0.0316 -0.07401,-0.003 0.0096,0.0695 0.08158,0.0667 0.180003,0.078 0.225399,0.022 0.04746,-0.053 0.14458,-0.0516 0.220722,0.011 0.08178,0.0674 0.07085,0.0992 -0.02545,0.0743 -0.08859,-0.0199 -0.176014,0.0323 -0.194035,0.11838 -0.0509,0.22732 -0.4812,0.0674 -2.031565,-0.75244 z m 2.553953,0.0933 c -0.011,-0.0323 -0.04608,-0.0495 -0.07876,-0.0378 -0.03233,0.011 -0.04952,0.0461 -0.03783,0.0788 0.011,0.0323 0.04608,0.0495 0.07876,0.0378 0.03233,-0.011 0.04952,-0.0461 0.03783,-0.0788 z m -0.492893,-0.23868 c -0.011,-0.0323 -0.04608,-0.0495 -0.07876,-0.0378 -0.03233,0.011 -0.04952,0.0461 -0.03783,0.0788 0.011,0.0323 0.04608,0.0495 0.07876,0.0378 0.03233,-0.011 0.04952,-0.0461 0.03783,-0.0788 z m -9.338281,3.9617 c -0.320387,-0.25567 1.925098,-4.87292 2.301199,-4.73206 0.393641,0.14795 0.354985,0.29246 -0.704688,2.63907 -0.985759,2.18282 -1.174573,2.43032 -1.596511,2.09299 z m 9.96087,-3.3501 c -0.01101,-0.0323 0.03301,-0.11548 0.09162,-0.18908 0.06899,-0.0823 0.09657,-0.07 0.07002,0.0337 -0.03852,0.17058 -0.128829,0.25594 -0.164045,0.15456 z m -1.540901,-2.58237 -1.345628,-0.66017 0.45637,-1.01289 c 0.654807,-1.45322 1.176218,-1.58223 2.860632,-0.70773 0.926875,0.4812 1.379352,1.04414 0.7029,0.8746 -0.328642,-0.0824 -0.35471,-0.0612 -0.498121,0.39805 -0.602945,1.93375 -0.549845,1.90671 -2.176476,1.10861 z m -10.494103,4.05235 c -1.883939,-0.21412 -1.594861,-3.26163 0.304223,-3.20669 0.50156,0.0144 0.539803,-0.01 0.403408,-0.26399 -0.228563,-0.42521 -0.04333,-0.90048 2.031634,-5.22603 2.229232,-4.6464 2.190639,-4.57954 2.526984,-4.37623 0.303123,0.18303 0.131442,0.58781 -3.424839,8.1108 -0.587813,1.24324 -0.587813,1.24324 -0.230146,2.26696 0.611681,1.75014 -0.05915,2.87161 -1.61165,2.69511 z m 0.935575,-1.25483 c 0.242458,-0.28304 -0.03026,-1.01738 -0.402444,-1.07458 -0.652812,-0.10379 -1.026025,0.21886 -1.002247,0.86593 0.0227,0.62207 0.931064,0.75797 1.401259,0.20999 z m 4.192793,-2.12154 c -1.788077,-0.16459 -2.027432,-2.61605 -0.304843,-3.1225 1.451305,-0.42706 2.651864,1.63913 1.582706,2.72368 -0.412349,0.41854 -0.560987,0.46435 -1.277451,0.40017 z m 0.718967,-1.17368 c 0.27052,-0.55858 -0.346732,-1.28713 -0.92107,-1.08758 -0.560713,0.19479 -0.61904,1.18878 -0.08213,1.39003 0.339853,0.12731 0.87284,-0.033 1.002356,-0.30457 z m -10.328662,4.06914 c -0.385868,-0.30794 4.248698,-10.17403 4.742142,-10.09593 0.460153,0.0731 0.43546,0.13633 -2.313923,6.03631 -1.932877,4.14696 -2.057621,4.35545 -2.428219,4.05962 z m 16.690783,-7.50869 -1.062974,-0.4777 1.338028,-2.74618 c 0.735832,-1.51034 1.395288,-2.81822 1.465281,-2.9064 0.445778,-0.5612 1.654391,-0.28937 1.903534,0.42776 0.126422,0.36385 -1.251148,3.62728 -1.751725,4.14984 -0.158199,0.16494 -0.149807,0.22898 0.0509,0.41483 0.380572,0.35127 -0.182548,2.02318 -0.599437,1.77963 -0.154485,-0.0905 -0.759383,-0.37913 -1.343915,-0.64181 z m -4.324854,1.29945 c -0.295557,-0.27231 2.660751,-6.50407 3.168838,-6.6806 0.278087,-0.0966 0.278087,-0.0966 0.09939,0.30698 -0.09967,0.22251 -0.137771,0.38937 -0.08577,0.37128 0.232622,-0.0808 -2.561608,6.06513 -2.800296,6.15986 -0.07993,0.0316 -0.251743,-0.0392 -0.380503,-0.15834 z m -15.53214,4.81246 c -0.428513,-0.2589 -0.577908,0.093 4.481217,-10.56588 2.138604,-4.5057 2.59049,-5.36457 2.784621,-5.29184 0.127453,0.0481 0.218933,0.14602 0.202426,0.21804 -0.01857,0.072 0.03577,0.10833 0.116104,0.0805 0.07993,-0.0275 -0.420053,1.14547 -1.111534,2.60735 -0.691482,1.46194 -2.343376,4.98831 -3.670743,7.83645 -2.523956,5.41543 -2.469591,5.31622 -2.80249,5.11506 z m 12.933761,-5.13008 c -0.286134,-0.22828 3.063072,-7.01097 3.509138,-7.10676 0.558374,-0.11975 0.472947,0.12477 -1.29898,3.73231 -1.683554,3.42749 -1.841582,3.66866 -2.210158,3.37445 z m -16.084262,3.5597 c -1.872108,-1.01965 -1.809887,-0.95185 -1.505643,-1.63942 0.762885,-1.7242 5.040327,-10.94115 5.299533,-11.41924 0.355398,-0.65577 0.713368,-0.9578 1.297123,-1.09509 0.299753,-0.0674 0.610923,-0.14672 0.692458,-0.17505 0.32025,-0.0967 1.268812,0.41372 1.489004,0.79851 0.403614,0.70486 0.316674,0.99537 -1.431344,4.67567 -0.942722,1.98707 -1.72869,3.67713 -1.746532,3.75571 -0.06259,0.27444 -2.705301,5.70015 -2.790866,5.72988 -0.0454,0.0158 -0.634447,-0.26887 -1.304661,-0.63362 z m -3.06984,-2.0497 c -0.297277,-0.16398 -0.112321,-0.952 0.253463,-1.07909 0.504861,-0.17539 0.730095,0.49812 0.322932,0.97131 -0.230695,0.26873 -0.272309,0.27664 -0.577702,0.10826 z m 14.933281,-5.79128 c -1.306023,-0.20669 -1.825143,-1.77374 -0.908414,-2.74038 0.361313,-0.38112 1.017674,-0.61422 1.397848,-0.50025 0.263986,0.0808 0.321006,0.0268 0.596823,-0.56415 0.304292,-0.65405 0.304292,-0.65405 0.650817,-0.48608 0.345837,0.16748 0.345837,0.16748 0.006,0.88706 -0.25869,0.5464 -0.300235,0.77275 -0.1734,0.9429 0.763895,1.02292 -0.283727,2.66328 -1.571034,2.4595 z m 0.843765,-1.2284 c 0.300578,-0.62069 -0.253531,-1.27874 -0.890881,-1.05729 -0.702741,0.24418 -0.675854,1.24877 0.03783,1.39267 0.545856,0.11033 0.659278,0.066 0.854145,-0.33318 z M 126.28536,91.30497 c -1.45392,0.04815 -3.49118,0.09994 -4.52717,0.115829 -2.19902,0.0337 -1.76002,0.318806 -4.07976,-2.649938 -1.50559,-1.926852 -1.77351,-2.166097 -3.31241,-2.958049 -0.96097,-0.494544 -0.96097,-0.494544 -0.56608,-1.294584 0.47804,-0.968227 0.29769,-1.000665 3.76875,0.677986 1.92465,0.930844 2.35384,1.188543 2.3604,1.417093 0.0667,2.314205 2.55899,3.526877 4.31781,2.10063 0.28353,-0.230283 0.39034,-0.267426 0.50411,-0.174707 0.0794,0.06465 1.12374,0.601913 2.32109,1.194245 2.99906,1.483839 3.01779,1.446387 -0.78679,1.571515 z m -90.523357,31.71325 c -0.110189,-0.23331 -0.09409,-0.35471 0.07855,-0.48237 0.405127,-0.30312 0.899527,0.0509 0.686033,0.49083 -0.166659,0.34405 -0.596548,0.33903 -0.764232,-0.008 z m 1.715752,-0.76286 c -1.688218,-0.81755 -1.123881,-3.33956 0.691922,-3.10671 1.869342,0.2384 2.053115,2.57597 0.254288,3.23343 -0.287097,0.10413 -0.537465,0.071 -0.946093,-0.12642 z m 1.255881,-1.14337 c 0.382429,-0.52976 -0.12821,-1.17579 -0.850815,-1.07609 -0.404577,0.055 -0.763641,0.67014 -0.6253,1.06838 0.182824,0.52625 1.098253,0.53079 1.475861,0.008 z m 19.897885,-6.35113 c -2.109447,0.21736 -3.921976,-0.56669 -4.915645,-2.12665 -0.195754,-0.30774 -0.424249,-0.64484 -0.50775,-0.74879 -1.262856,-1.58092 -0.924647,-4.87638 0.67661,-6.59806 1.981967,-2.13079 6.411012,-2.44733 7.822155,-0.55865 0.09265,0.11995 0.215082,0.20194 0.278087,0.18007 0.06466,-0.0227 0.162464,0.10083 0.222029,0.27238 0.05984,0.17154 0.14458,0.26942 0.183305,0.21955 0.09678,-0.11954 0.170442,0.0275 0.812682,1.61813 1.527371,3.78204 -0.567659,7.32899 -4.57236,7.74186 z m 2.264586,-1.59774 c 3.981886,-2.71015 1.722789,-9.03648 -3.135444,-8.77931 -1.493228,0.079 -3.72896,1.26646 -3.518348,1.87265 0.02063,0.0585 -0.04608,0.12808 -0.143274,0.16192 -0.245621,0.0854 -0.90309,1.88024 -0.848607,2.31663 0.02407,0.19548 0.03714,0.4931 0.02889,0.66203 -0.171887,3.51204 4.555309,5.84929 7.616448,3.76582 z m -3.146952,0.43292 c -5.270197,-0.64037 -5.352715,-8.36989 -0.09361,-8.7689 4.501844,-0.3415 6.789397,5.81334 2.980622,8.01931 -0.155035,0.0903 -0.300234,0.20264 -0.323138,0.24989 -0.121195,0.2569 -1.82634,0.59084 -2.563892,0.49902 z m 3.885955,-1.79939 c -0.011,-0.0323 -0.04608,-0.0495 -0.07876,-0.0378 -0.03233,0.011 -0.04952,0.0461 -0.03783,0.0788 0.01101,0.0323 0.04608,0.0495 0.07876,0.0378 0.03233,-0.011 0.04952,-0.0461 0.03783,-0.0787 z m -1.962735,0.64552 c 3.535606,-1.79782 2.319082,-6.83798 -1.65424,-6.85287 -3.676925,-0.0138 -4.895574,5.00753 -1.628302,6.70924 0.892731,0.4649 2.511211,0.53575 3.282412,0.14369 z m -2.128259,-1.55156 c -1.822819,-0.5984 -1.786536,-3.15943 0.0509,-3.60628 1.894826,-0.46098 3.149159,1.73124 1.794507,3.13627 -0.542004,0.56257 -1.117739,0.70873 -1.845379,0.47006 z m 1.473975,-1.48347 c 0.229802,-0.66526 -0.04471,-1.15001 -0.705644,-1.24507 -0.826886,-0.11899 -1.441317,0.54448 -1.18716,1.27598 0.284483,0.81878 1.607372,0.79714 1.893004,-0.0309 z M 127.59004,88.277692 c -2.32032,-1.091835 -2.32032,-1.091835 -2.54179,-1.956393 -0.45293,-1.768529 -1.88002,-2.461131 -3.63938,-1.766417 -1.0207,0.405609 -0.742,0.475491 -4.15373,-1.074433 -2.59159,-1.177449 -2.46011,-1.036212 -1.94178,-2.086076 0.39962,-0.809484 0.39962,-0.809484 1.45117,-0.284277 0.94835,0.473772 3.30954,0.890503 4.24909,0.749967 0.16893,-0.02201 2.27554,-0.0619 2.99293,-0.05227 0.36138,0.0048 0.64222,0.104549 0.80978,0.287372 0.8968,0.978124 2.09991,2.516741 2.44222,3.123346 0.0876,0.153797 0.25951,0.373693 0.3836,0.487872 0.12429,0.114797 0.21728,0.227394 0.20731,0.252018 -0.0151,0.04196 0.75028,1.126673 1.45634,2.05784 1.19064,1.570477 1.09658,1.584804 -1.71584,0.261166 z M 35.223026,118.78515 c 1.383031,-2.8602 1.54815,-3.11701 1.806744,-2.81052 0.351821,0.4173 -2.417427,6.06135 -2.867325,5.84346 -0.329192,-0.15944 -0.329192,-0.15944 1.060581,-3.03294 z m 5.706324,0.63774 c -0.150151,-0.0906 -0.02958,-0.4682 0.554385,-1.73033 0.410286,-0.88767 0.915381,-2.02658 1.121707,-2.5305 0.381398,-0.93106 0.755669,-1.27657 0.907953,-0.83827 0.04471,0.12931 -0.0061,0.38078 -0.113215,0.55852 -0.193691,0.32066 -1.130773,2.36587 -1.753541,3.8263 -0.34962,0.81905 -0.422529,0.89205 -0.717186,0.71373 z m 27.427434,-9.92759 c -0.02751,-0.0845 -0.05159,-0.52165 -0.05434,-0.97202 -0.0026,-0.44984 -0.01307,-0.90786 -0.02407,-1.01678 -0.04746,-0.48946 -0.0392,-1.97856 0.01169,-2.09137 0.0337,-0.07 0.321626,-0.12628 0.646485,-0.12195 1.720449,0.008 3.951889,-1.56016 5.035869,-3.54053 0.744396,-1.35954 -0.253325,-2.133247 -1.099587,-0.85322 -1.276708,1.93055 -2.70257,3.03862 -3.981465,3.09404 -1.253199,0.0543 -1.096197,-0.45024 2.4207,-7.774458 1.662281,-3.461898 3.329301,-6.827364 3.704432,-7.478766 0.854592,-1.483949 0.896741,-1.549781 0.930603,-1.452323 0.01582,0.0454 0.129654,-0.05227 0.255251,-0.214669 0.95793,-1.243521 3.972703,-1.19386 5.232855,0.08667 2.099591,2.133191 2.062194,4.709429 -0.135363,9.352904 -2.660064,5.620582 -4.252186,7.872682 -7.144417,10.105942 -1.836526,1.41807 -5.655948,3.31318 -5.798004,2.87686 z M 80.975488,89.460217 c 0.531205,-1.259533 -1.079599,-2.178904 -1.812735,-1.034677 -0.297552,0.463867 -0.0866,1.186458 0.424662,1.45702 0.430095,0.227738 1.214694,-0.01169 1.387489,-0.423836 z m -42.32631,28.324103 c 0.409392,-0.86093 0.411937,-0.864 0.715225,-0.79316 0.249611,0.0585 0.222924,0.22038 -0.215494,1.29328 -0.33215,0.81296 -0.33215,0.81296 -0.605903,0.55562 -0.260409,-0.24445 -0.254563,-0.29672 0.105718,-1.05592 z m 26.518835,-8.47964 c -0.130618,-0.25023 -0.09843,-0.27307 0.789014,-0.58142 0.907726,-0.31536 0.924523,-0.31695 1.030867,-0.011 0.157993,0.45479 -1.596635,1.02584 -1.818753,0.59551 z M 97.534045,96.860984 c -0.921873,-0.101316 -2.355895,-0.962249 -1.560126,-0.936765 0.135364,0.0039 0.255733,-0.125253 0.318323,-0.353816 0.0564,-0.198643 0.36104,-0.993821 0.67682,-1.767029 0.31605,-0.773167 0.654873,-1.650705 0.753053,-1.949722 0.18853,-0.574469 0.98503,-0.393228 1.22766,0.281251 0.10007,0.277605 -0.14135,2.188354 -0.30113,2.384968 -0.0619,0.07972 0.033,0.538153 0.23406,1.128373 0.37445,1.098672 0.0731,1.369516 -1.34898,1.213442 z M 64.920156,107.63667 c -0.299684,-0.35533 -0.266393,-0.51105 0.139009,-0.65192 0.326784,-0.11356 0.485396,-0.31722 0.863568,-1.10872 0.795741,-1.66528 1.258873,-1.17143 0.503142,0.53657 -0.506444,1.14441 -1.139096,1.65889 -1.505678,1.22434 z m -25.487589,8.60484 c -0.303743,-0.0736 -0.606728,-0.27705 -0.816645,-0.54812 -0.995788,-1.28168 0.09299,-3.03924 1.628089,-2.62787 0.535607,0.14375 0.535607,0.14375 0.900937,-0.66547 0.364752,-0.80902 0.364752,-0.80902 0.695492,-0.64937 0.330911,0.16026 0.330911,0.16026 -0.121401,1.08403 -0.378096,0.77286 -0.427757,0.99371 -0.303398,1.35158 0.464486,1.33687 -0.562364,2.40104 -1.982861,2.05486 z m 1.124156,-1.22468 c 0.282351,-0.58307 -0.35588,-1.30935 -0.964031,-1.09807 -0.257315,0.0894 -0.578872,0.82953 -0.482026,1.10826 0.213293,0.61401 1.147294,0.60721 1.446332,-0.0103 z M 99.925325,94.929559 c -0.0138,-0.03921 0.0571,-0.366403 0.156745,-0.728734 0.0998,-0.362345 0.16694,-0.699501 0.14954,-0.749527 -0.0647,-0.185161 0.22484,-0.679568 0.44247,-0.755187 0.38271,-0.132956 0.37376,0.264811 -0.0275,1.249016 -0.33146,0.812731 -0.63637,1.228272 -0.721325,0.983717 z m 0.714115,-1.878814 c -0.011,-0.03233 -0.0461,-0.04952 -0.0787,-0.03783 -0.0323,0.01101 -0.0495,0.04608 -0.0378,0.07882 0.011,0.03233 0.0461,0.04952 0.0788,0.03783 0.0323,-0.01101 0.0495,-0.04608 0.0378,-0.07882 z M 29.895506,118.12712 c -0.851008,-0.56319 -0.852797,-0.5788 -0.275404,-1.90557 0.490417,-1.12718 0.490417,-1.12718 1.320391,-0.70851 1.032944,0.52137 1.013197,0.43395 0.406297,1.80447 -0.60267,1.36098 -0.610786,1.36545 -1.450913,0.80919 z M 88.475859,96.451826 c -2.009465,-0.65969 -2.826137,-2.95304 -1.95098,-5.468654 0.682664,-1.955857 1.370933,-3.005047 2.148654,-3.275251 0.438555,-0.152353 0.445984,-0.133094 0.276229,0.711249 -0.07683,0.374038 -0.165215,0.934909 -0.197818,1.245708 -0.03164,0.310346 -0.07367,0.676542 -0.09347,0.814382 -0.01788,0.136601 0.01238,0.38463 0.06913,0.549019 0.05709,0.16439 0.06397,0.35134 0.0089,0.417096 -0.219965,0.270108 0.638299,2.103243 1.447907,3.092277 0.822443,1.004908 -0.378852,2.351114 -1.708585,1.914573 z M 36.474828,114.83782 c -0.385181,-0.18653 -0.301266,-0.46256 0.907533,-2.9778 1.207121,-2.51226 1.516703,-2.92732 1.807955,-2.42414 0.09657,0.17326 -2.228097,5.39659 -2.437182,5.46923 -0.0454,0.0158 -0.169616,-0.0144 -0.278224,-0.0674 z M 93.708102,94.357979 c -3.100874,-0.409598 -3.945974,-3.737097 -2.183237,-8.595914 0.949841,-2.618161 1.182312,-3.009339 1.946317,-3.274784 1.378912,-0.479068 1.854499,-0.01513 1.862877,1.818004 0.0035,0.785486 0.011,1.549491 0.0172,1.697951 0.0076,0.1474 0.265293,1.067479 0.577151,2.042495 0.646002,2.026936 0.679982,1.669984 -0.360281,4.05421 -0.368879,0.845395 -0.705417,1.694698 -0.748227,1.887749 -0.08288,0.375413 -0.36427,0.468819 -1.110798,0.371355 z M 45.076017,111.06524 c -4.864182,0.27189 -7.564373,-5.83054 -4.113699,-9.2969 2.435585,-2.446697 6.391354,-2.054577 8.400682,0.83318 2.458139,3.53257 0.08419,8.21935 -4.286983,8.46372 z m 2.113307,-1.43545 c 4.163319,-2.43168 2.264812,-8.82885 -2.543519,-8.56992 -3.520198,0.18943 -5.551599,3.88371 -3.771756,6.85913 1.330978,2.22548 4.134128,2.98471 6.315144,1.71083 z m -2.607975,0.20194 c -3.012558,-0.24782 -4.801879,-3.29395 -3.506311,-5.96909 1.188268,-2.45358 4.984765,-3.16309 6.737961,-1.2592 0.743454,0.80691 0.850162,0.96942 1.089401,1.658 0.990925,2.8521 -1.309648,5.81795 -4.320858,5.57022 z m 2.092328,-1.23156 c 0.786525,-0.51793 1.864232,-2.24098 1.557697,-2.49033 -0.05296,-0.0475 -0.04815,-0.0968 0.01032,-0.11714 0.425555,-0.14788 -0.131512,-1.96503 -0.820194,-2.67505 -2.560033,-2.63941 -6.964668,-0.0509 -5.778828,3.39586 0.696633,2.02602 3.322415,3.011 5.029274,1.88701 z m -2.240134,-1.28106 c -0.261991,-0.0585 -0.651505,-0.29068 -0.86442,-0.51587 -1.414665,-1.49432 0.305668,-3.77385 2.123747,-2.81398 1.857271,0.98054 0.795356,3.78771 -1.259327,3.32983 z m 0.953845,-0.978 c 0.788773,-0.64683 0.146231,-2.00409 -0.793967,-1.67742 -0.401551,0.13949 -0.732015,0.82593 -0.591459,1.23057 0.193003,0.55549 0.953927,0.80071 1.38546,0.44681 z m -13.473778,8.29802 c -1.680507,-0.80646 -1.707078,-0.83306 -1.460556,-1.45769 0.171131,-0.43374 0.171131,-0.43374 1.030179,-0.0928 1.191666,0.47295 3.174981,1.60708 2.577669,1.47398 -0.06328,-0.0144 -0.19204,0.0886 -0.288129,0.22898 -0.09657,0.13914 -0.134469,0.23963 -0.08378,0.22203 0.05227,-0.0179 0.07655,0.0316 0.05503,0.11699 -0.06672,0.29996 -0.336689,0.22767 -1.833307,-0.49076 z m 1.909821,-0.092 c 0.02063,-0.0873 -0.0022,-0.17402 -0.0392,-0.19747 -0.04402,-0.0213 -0.08192,0.0578 -0.08481,0.17512 -0.0076,0.24369 0.07484,0.25724 0.128141,0.0213 z m 29.717353,-10.08388 c -0.235786,-0.18826 1.31418,-3.59574 1.659185,-3.64644 0.516073,-0.0759 0.423767,0.43168 -0.380916,2.10062 -0.832368,1.72606 -0.919886,1.83191 -1.27829,1.54582 z M 101.41943,90.574695 c -2.156635,-0.19259 -4.005585,-2.294733 -4.223888,-4.802526 -0.0829,-0.955564 -0.0997,-4.078284 -0.0261,-5.020098 0.0715,-0.917624 0.1355,-0.903097 3.260118,0.740124 0.49097,0.258277 1.16947,0.502523 1.50685,0.542417 0.67276,0.07937 0.79342,0.560919 0.70172,2.803522 -0.13041,3.204571 0.0385,4.481568 0.67234,5.078714 0.16687,0.15758 0.31282,0.313647 0.32459,0.347419 0.053,0.152697 -1.51799,0.373075 -2.21562,0.311033 z m 2.53478,-2.888626 c 0.0179,-0.395704 0.0158,-1.221064 -0.004,-1.834546 -0.0406,-1.232908 -0.002,-1.293319 0.61305,-0.966211 0.52715,0.2807 0.51071,0.22306 0.3911,1.335214 -0.22478,2.092678 -1.0839,3.351895 -0.99977,1.465357 z M 31.497533,111.35297 c 0.9021,-2.4234 0.972292,-2.46869 2.63817,-1.70287 1.570614,0.72196 2.709476,1.92042 1.227618,1.29193 -0.246928,-0.10497 -0.292393,-0.0557 -0.518962,0.55603 -0.659965,1.7812 -0.500803,1.71134 -2.071913,0.90845 -1.381794,-0.706 -1.399161,-0.72036 -1.274968,-1.0539 z m 30.023461,-8.37502 c -0.207447,-0.16529 1.510217,-4.037257 1.842098,-4.152567 0.662372,-0.23014 0.579903,0.23978 -0.398731,2.266207 -0.997094,2.06509 -1.081366,2.17527 -1.443367,1.88636 z m 4.447025,-2.51818 c -1.772862,-0.764617 -1.172826,-3.270859 0.716972,-2.992487 0.39536,0.0585 0.426175,0.0385 0.709048,-0.461189 0.296177,-0.522332 0.296177,-0.522332 0.567729,-0.325408 0.273959,0.197542 0.242801,0.552046 -0.08591,1.016437 -0.0509,0.0688 -0.01513,0.36936 0.07731,0.66272 0.478724,1.50368 -0.636579,2.682547 -1.985736,2.100637 z m 1.213745,-1.160697 c 0.275197,-0.64972 -0.273685,-1.15859 -0.983806,-0.91185 -0.433397,0.15056 -0.580866,0.47776 -0.421498,0.93642 0.194379,0.55941 1.165096,0.54207 1.405565,-0.0248 z M 111.94456,84.236152 c 0.0268,-0.178215 0.1324,-0.500391 0.23475,-0.71506 0.19734,-0.41517 0.17072,-0.687685 -0.073,-0.741968 -0.21095,-0.04677 -0.25958,-0.258621 -0.0647,-0.284758 0.0883,-0.01582 0.25951,0.03646 0.37727,0.107782 0.17285,0.104549 0.16184,0.0619 -0.0543,-0.219897 -0.28716,-0.3728 -0.49337,-0.400932 -0.50397,-0.06885 -0.004,0.111427 -0.11273,0.278018 -0.24252,0.371905 -0.12911,0.09581 -0.47962,0.661066 -0.77765,1.26084 -0.5363,1.080507 -0.86057,1.269184 -1.10635,0.644352 -0.11754,-0.300647 2.83546,-6.463548 3.27333,-6.830638 0.52336,-0.4389 1.55602,-0.108126 1.79331,0.574881 0.12257,0.352784 -2.20743,5.301665 -2.55221,5.421456 -0.10372,0.03577 -0.1639,0.137015 -0.13364,0.224093 0.0495,0.141623 -0.072,0.53038 -0.17698,0.566834 -0.0227,0.0076 -0.0199,-0.131374 0.008,-0.31007 z m 0.0261,-1.979656 c 0.0289,-0.06122 0.0792,-0.03508 0.1097,0.05296 0.031,0.08969 0.005,0.139352 -0.053,0.110189 -0.0605,-0.02958 -0.0859,-0.102692 -0.0564,-0.162464 z m -4.49364,1.376305 c -1.007,-0.139421 -0.8659,-0.761103 1.11964,-4.931162 1.35158,-2.839 1.84113,-3.242463 2.6261,-2.164316 0.21749,0.298722 -2.69844,6.937451 -3.14333,7.157341 -0.0186,0.0089 -0.28978,-0.01857 -0.60267,-0.0619 z M 34.392336,108.25946 c -0.614225,-0.32176 -1.134542,-0.63609 -1.15605,-0.698 -0.05296,-0.15269 2.518481,-5.79544 2.883839,-6.32869 0.885592,-1.292237 3.051172,-0.47832 2.437037,0.91622 -0.04952,0.11266 -0.42817,0.99837 -0.840973,1.96745 -0.412762,0.96905 -1.013816,2.33048 -1.335827,3.0254 -0.322038,0.69514 -0.603495,1.36512 -0.625574,1.48943 -0.05434,0.30587 -0.08611,0.29714 -1.362452,-0.37184 z M 104.105,84.533862 c -0.0234,-0.06672 -0.0165,-0.131168 0.01,-0.140178 0.0323,-0.011 0.10579,0.02132 0.17175,0.07724 0.0619,0.05365 0.0557,0.117618 -0.01,0.140178 -0.0708,0.02476 -0.14733,-0.0069 -0.17175,-0.07724 z M 52.061478,102.07032 c -0.959801,-0.0954 -1.038185,-0.13956 -2.770211,-1.56773 -0.513253,-0.42315 -1.286042,-0.941777 -1.717451,-1.152547 -1.016684,-0.49681 -1.020542,-0.48525 0.268182,-0.79583 1.299977,-0.3133 6.079214,-1.944669 6.566941,-2.245185 3.024926,-1.844004 5.389074,-6.453761 5.984226,-11.668203 0.252706,-2.214237 0.5614,-3.207356 1.165803,-3.75033 0.512084,-0.460428 1.006972,-0.703738 1.165832,-0.574744 0.155172,0.12594 2.288205,-0.55693 2.698883,-0.864145 1.069612,-0.79905 0.95,6.451813 -0.172024,10.432818 -1.22151,4.334002 -4.864616,9.278169 -7.882381,10.697206 -0.37562,0.17422 -0.699075,0.35719 -0.720927,0.40266 -0.15648,0.32307 -3.73623,1.16776 -4.587932,1.08358 z M 103.99913,84.229143 c -0.011,-0.03233 0.006,-0.06741 0.0378,-0.07876 0.0323,-0.011 0.0674,0.0057 0.0788,0.03783 0.011,0.03233 -0.006,0.06741 -0.0378,0.07882 -0.0323,0.011 -0.0674,-0.0057 -0.0788,-0.03783 z M 68.486556,96.215814 c -1.231635,-0.11748 -1.809723,-1.85657 -0.920719,-2.775782 0.847569,-0.877723 2.429016,-0.355329 2.725138,0.900008 0.26378,1.119768 -0.574676,1.992229 -1.802535,1.875121 z m 0.905194,-1.190751 c 0.340954,-0.510914 -0.320456,-1.328886 -0.906302,-1.120531 -0.323414,0.114935 -0.448873,0.281938 -0.508644,0.678399 -0.123258,0.812621 0.945129,1.146352 1.414657,0.442407 z m 34.67646,-11.335014 c 0.0787,-0.161295 0.0977,-0.152628 0.0919,0.04471 -0.004,0.135982 -0.0488,0.227532 -0.0992,0.202701 -0.0523,-0.02545 -0.0475,-0.135707 0.007,-0.247822 z m 0.35574,-2.122523 c -0.63899,-0.286272 -0.83611,-0.924798 -0.3457,-1.120745 0.0447,-0.01788 0.26818,-0.586162 0.49565,-1.263192 0.71711,-2.134925 0.9695,-2.423879 2.03224,-2.326435 1.03039,0.09492 0.9803,0.367916 -0.62695,3.41492 -0.97567,1.850125 -0.74489,1.657803 -1.55441,1.295156 z m -33.993189,11.86873 c -0.332975,-0.201807 0.28916,-1.612104 3.153747,-7.146542 0.837279,-1.617813 3.769555,-3.141862 3.454065,-1.795698 -0.03646,0.155311 -0.312134,0.291981 -1.090873,0.542142 -1.042676,0.333112 -1.042676,0.333112 -3.037237,4.379275 -2.033904,4.124023 -2.108615,4.245149 -2.479702,4.02085 z m 13.645512,-5.365708 c -0.190733,-0.255595 1.133655,-3.25668 1.492107,-3.381218 0.63541,-0.22079 0.593109,0.131031 -0.218315,1.814028 -0.846757,1.756107 -0.995733,1.939301 -1.273778,1.56719 z M 100.94019,80.04748 c -0.45555,-0.242251 -0.48643,-0.31234 -0.30526,-0.69003 0.0784,-0.161983 0.28201,-0.680532 0.45149,-1.153196 0.46641,-1.299283 1.04918,-2.551463 1.17448,-2.523634 0.0633,0.01444 0.11439,-0.06885 0.11824,-0.181585 0.008,-0.237849 0.35732,-0.402995 0.42796,-0.199675 0.0254,0.07408 0.30567,0.259378 0.62193,0.413038 0.74327,0.359937 0.75521,0.203664 -0.15889,2.085731 -0.43663,0.899376 -0.90698,1.875113 -1.04516,2.168366 -0.27754,0.588639 -0.33078,0.592628 -1.28644,0.08508 z M 68.109154,92.03889 c -0.49702,-0.01582 -0.269901,-0.630045 1.75568,-4.744371 2.120123,-4.306751 2.389887,-4.733097 2.604226,-4.116183 0.09664,0.278087 -3.817702,8.755186 -4.085588,8.848256 -0.03233,0.011 -0.15421,0.0172 -0.274579,0.01238 z m -28.354735,8.24531 c -0.131099,-0.27265 -0.108125,-0.323617 0.206416,-0.432837 0.977959,-0.33979 1.758871,-2.873917 1.297281,-4.209605 -0.668495,-1.934576 0.398593,-4.034181 2.404681,-4.731172 1.4622,-0.508025 1.791963,-0.505343 1.973678,0.01788 0.08061,0.231933 0.01376,0.267562 -1.320921,0.699226 -1.068855,0.34226 -1.442287,0.51566 -1.559087,0.702603 -0.0844,0.136396 -0.138733,0.177115 -0.119956,0.09265 0.02064,-0.08729 -0.22533,0.36372 -0.540215,0.999289 -0.57275,1.156229 -0.57275,1.156229 -0.137633,2.312169 0.43773,1.155095 0.43773,1.155095 -0.09416,2.43337 -0.572819,1.38264 -0.994591,2.253167 -1.035042,2.136747 -0.01376,-0.0392 -0.101935,0.006 -0.190802,0.11727 -0.255457,0.28751 -0.712226,0.21831 -0.882951,-0.13158 z m 4.05075,-1.255917 c -0.07759,-0.22939 0.585887,-1.672981 0.80337,-1.748532 0.365784,-0.127109 0.394053,0.111359 0.105856,0.904002 -0.280219,0.77162 -0.777769,1.23372 -0.90926,0.84455 z m 8.377496,-3.57036 c -0.315435,-0.413243 -0.717288,-0.421428 -1.086044,-0.02063 -0.356429,0.386693 -0.690814,0.365233 -0.836639,-0.05434 -0.117824,-0.339165 -0.09416,-0.375758 0.330774,-0.523433 0.447015,-0.15531 0.452862,-0.171887 0.298446,-0.616357 -0.154004,-0.443096 -0.652606,-0.832575 -0.938492,-0.733246 -0.133851,0.04677 -0.373557,-0.540835 -0.359869,-0.889004 0.0022,-0.119475 0.136945,-0.263848 0.295488,-0.318943 0.345012,-0.119887 0.488767,-0.796753 0.246241,-1.158499 -0.13275,-0.193416 -0.09017,-0.301404 0.213569,-0.573712 0.50548,-0.452312 0.608516,-0.471365 0.72634,-0.1322 0.128898,0.371011 0.45128,0.489798 0.92402,0.340128 0.51002,-0.162601 0.672415,-0.476867 0.476248,-0.927982 -0.136807,-0.310002 -0.115691,-0.395979 0.111015,-0.512565 0.536157,-0.275886 0.909411,-0.228563 0.940556,0.1203 0.05227,0.589051 0.659346,0.751246 1.002053,0.268595 0.322727,-0.454376 0.695299,-0.508095 0.706284,-0.101936 0.0076,0.190252 0.05915,0.253325 0.194653,0.206141 0.119544,-0.04127 0.185025,0.01307 0.180279,0.150014 -0.0026,0.118167 -0.08474,0.212949 -0.179866,0.209579 -0.25023,-0.0076 -0.356085,0.291224 -0.190527,0.537327 0.124221,0.189839 0.260616,0.171611 1.218608,-0.161226 1.118172,-0.388482 1.336569,-0.37335 1.263681,0.08667 -0.03646,0.23042 -0.1994,0.331393 -1.041404,0.643595 -1.333887,0.49255 -2.173058,1.924485 -1.319168,2.244268 0.356705,0.13385 0.12374,0.754403 -0.30725,0.817428 -0.216251,0.03164 -0.275473,0.08116 -0.183167,0.156136 0.08109,0.06603 0.05228,0.138321 -0.07036,0.180966 -0.205934,0.07153 -0.316949,-0.258346 -0.297552,-0.877434 0.01582,-0.447429 -0.977058,-0.491931 -1.618631,-0.07256 -0.510433,0.333181 -0.519444,1.102242 -0.01445,1.19214 0.215839,0.03852 0.242389,0.09196 0.195067,0.393847 -0.08261,0.523089 -0.529279,0.587262 -0.880908,0.126215 z m 2.31999,-3.074682 c 0.600538,-0.405265 0.105443,-1.702147 -0.654944,-1.717485 -0.967016,-0.01926 -1.149131,1.343303 -0.238537,1.784355 0.395704,0.191627 0.524121,0.181998 0.893598,-0.06741 z m -2.191931,0.44337 c 0.353609,-0.73013 -0.387657,-1.505622 -1.176829,-1.231435 -0.29432,0.102279 -0.601157,0.835064 -0.487322,1.162522 0.244039,0.702356 1.335578,0.747553 1.664254,0.06913 z m 29.15545,-7.33647 c -0.332769,-0.201119 0.731746,-2.39814 1.178549,-2.432063 0.449216,-0.0337 0.433121,0.121125 -0.139766,1.345614 -0.552252,1.179684 -0.673859,1.30691 -1.038749,1.08614 z m 16.630241,-6.803559 c -0.70347,-0.20559 -0.60412,-0.868953 0.48367,-3.243336 1.14262,-2.493562 1.454545,-2.832473 2.017025,-2.19103 0.60652,0.691529 0.6764,0.373006 -0.739225,3.362267 -1.057,2.23197 -1.08832,2.268844 -1.76147,2.072099 z m -19.237803,5.99217 c -0.206622,-0.190321 0.995623,-3.198972 1.323996,-3.313061 0.644489,-0.223955 0.616289,0.174707 -0.130274,1.799673 -0.821589,1.788943 -0.85248,1.828073 -1.193736,1.513388 z M 107.51946,74.535245 c -1.12887,0.09004 -1.87778,-0.03714 -2.79949,-0.474322 -1.40068,-0.664781 -1.95542,-1.148794 -3.13723,-2.737265 -0.59002,-0.792728 -3.597635,-9.765858 -3.468125,-10.346696 0.32974,-1.480063 2.515095,-2.361603 3.246145,-1.309146 0.10166,0.145956 0.51044,1.186356 0.90922,2.312011 0.86419,2.437023 0.86417,2.436961 2.07226,2.389536 l 0.93581,-0.03645 1.50332,4.215794 c 1.50333,4.215855 1.50333,4.215855 2.07066,4.796851 0.50328,0.516142 0.54578,0.595173 0.38174,0.705768 -0.38106,0.256901 -0.97927,0.426174 -1.71445,0.484226 z M 43.845469,96.029524 c -1.586263,-0.929213 -0.956685,-3.170613 0.875515,-3.115009 1.171678,0.03577 2.400665,-0.518068 2.733488,-1.232963 0.46937,-1.00605 0.911481,-0.664023 0.487047,0.376927 -0.300441,0.736424 -0.303673,0.739732 -1.163802,1.077893 -0.863499,0.336414 -0.863499,0.336414 -0.632659,0.888254 0.57048,1.363311 -1.022888,2.752472 -2.299582,2.004637 z m 1.336734,-0.902051 c 0.586713,-0.605009 -0.233034,-1.628522 -0.987981,-1.234063 -0.703903,0.367641 -0.462767,1.406713 0.343843,1.482112 0.411592,0.03852 0.339096,0.06672 0.642632,-0.252431 z m 0.455614,-2.032645 c -0.0619,-0.05365 -0.145131,-0.08646 -0.178903,-0.07477 -0.03233,0.011 -0.0083,0.06122 0.05571,0.117618 0.06259,0.05434 0.145061,0.08646 0.178902,0.07477 0.03233,-0.01101 0.0083,-0.06122 -0.05571,-0.117617 z m 0.640362,2.434051 c -0.157786,-0.454169 0.06672,-0.629082 1.402057,-1.092956 1.337333,-0.464624 1.337333,-0.464624 1.443202,-0.159919 0.105856,0.304705 0.105856,0.304705 -1.357699,0.813219 -0.805006,0.279669 -1.474925,0.476042 -1.48756,0.439656 z M 109.45191,71.914498 c -0.58651,-0.698635 -2.76208,-7.622522 -2.41687,-7.69149 0.17237,-0.03095 0.36916,-0.03577 0.44007,-0.0036 0.24108,0.109914 2.61237,7.370167 2.50279,7.662361 -0.13577,0.361725 -0.24404,0.368741 -0.52604,0.03302 z m -14.253957,4.605747 c -0.903475,-0.448048 -0.914886,-0.543724 -0.05021,-0.426794 0.79581,0.107988 0.928704,0.17904 0.918696,0.493513 -0.01032,0.321006 -0.101316,0.314059 -0.868946,-0.06672 z M 74.795096,83.645354 C 72.982471,83.760358 71.88631,81.211 73.231112,80.007318 c 0.831453,-0.744705 1.70117,-0.787653 2.590648,-0.128829 1.639466,1.214584 0.978991,3.639295 -1.026465,3.766796 z m 1.071634,-1.523829 c 0.180622,-0.372937 0.148913,-0.730378 -0.118374,-1.332023 -0.438487,-0.987506 -2.285647,-0.534575 -2.390203,0.586506 -0.133163,1.423215 1.889784,2.024337 2.509038,0.745785 z m 20.034755,-6.64188 c -0.05846,-0.167622 0.277397,-0.236886 0.500807,-0.101178 0.15476,0.09334 0.16913,0.147331 0.066,0.231933 -0.1496,0.124771 -0.504589,0.03989 -0.563948,-0.13103 z M 56.986319,88.569136 c -2.056272,-0.277399 -1.755563,-3.118489 0.342536,-3.234264 0.400863,-0.02201 0.427481,-0.04608 0.337445,-0.305118 -0.05365,-0.154622 -0.120093,-0.450523 -0.150564,-0.655425 -0.03645,-0.272103 -0.147882,-0.424799 -0.398593,-0.556174 -0.725921,-0.381259 -0.845698,-1.86406 -0.194378,-2.403814 0.56759,-0.470264 0.643595,-0.498121 1.211674,-0.450111 1.454166,0.126078 2.008255,1.589467 1.034141,2.73128 -0.392265,0.459603 -0.452587,0.491449 -0.84001,0.4411 -0.417646,-0.05365 -0.417646,-0.05365 0.02751,1.280203 0.724366,2.16871 0.203733,3.364138 -1.370926,3.151766 z m 0.888846,-1.422457 c 0.07181,-0.767816 -0.654876,-1.195353 -1.224599,-0.720494 -0.47446,0.394947 -0.425006,0.845237 0.12367,1.135484 0.478931,0.25305 1.059006,0.03508 1.099745,-0.418471 z m 0.770319,-4.190929 c 0.277124,-0.432709 0.146369,-0.886417 -0.321144,-1.112896 -0.388688,-0.188257 -0.879078,0.03645 -1.021368,0.468476 -0.27279,0.828543 0.872661,1.377893 1.342746,0.644145 z m 9.648144,0.676405 c -0.109295,-0.125872 0.06878,-0.607141 0.638368,-1.742749 0.757863,-1.51129 0.776923,-1.577981 0.530449,-1.854974 -0.808872,-0.909281 0.03439,-2.457582 1.243534,-2.283604 1.622669,0.233378 1.528905,2.640061 -0.107438,2.760629 -0.29597,0.02201 -0.490004,0.07779 -0.433328,0.121401 0.15648,0.127659 -1.236862,3.000913 -1.499418,3.092132 -0.124083,0.04333 -0.292118,-4.4e-4 -0.373625,-0.09664 z m 2.773609,-4.188645 c 0.270177,-0.412762 0.0076,-1.013596 -0.462835,-1.057547 -0.738288,-0.06899 -1.031335,0.97798 -0.363996,1.300898 0.311652,0.150977 0.630664,0.05709 0.826865,-0.243626 z m 20.862969,-4.680424 c -1.053448,0.133025 -1.36475,0.104274 -3.944358,-0.366609 -1.096182,-0.200225 -2.211197,-0.3999 -2.478141,-0.444333 -1.528135,-0.254288 -5.928828,-1.188255 -6.580842,-1.396651 -0.426794,-0.136464 -0.525909,-0.235235 -0.680119,-0.679018 -0.272171,-0.783306 -0.15868,-0.959698 1.06803,-1.663911 1.709857,-0.981446 2.529693,-1.998515 3.006258,-3.729042 0.226018,-0.820799 0.226018,-0.820799 1.335069,-0.529417 0.610236,0.161501 1.132011,0.358012 1.159029,0.435805 0.05021,0.143617 -0.148638,1.946083 -0.231246,2.100526 -0.88414,1.653318 -0.388963,2.132538 3.153699,3.052074 5.467286,1.419094 6.504343,1.376408 8.261529,-0.340472 0.768988,-0.751398 1.777051,-3.194426 1.241288,-3.00828 -0.0454,0.01582 -0.0488,-0.0564 0.008,-0.166522 0.601503,-1.242021 -1.706222,-3.710003 -4.089567,-4.374439 -0.540904,-0.150633 -1.564699,-0.441513 -2.274786,-0.646003 -2.309859,-0.665399 -4.45693,-1.237055 -4.697221,-1.250488 -0.187225,-0.011 -0.294663,0.279324 -0.523845,1.412147 -0.441789,2.180231 -0.305875,1.986135 -1.192388,1.70355 -1.846817,-0.588501 -1.775916,-0.53093 -1.784589,-1.450989 -0.01307,-1.33022 -0.45582,-2.424827 -1.625242,-4.011344 -0.109088,-0.1463 0.131443,-0.118443 0.831171,0.103723 3.943148,1.241678 6.467421,1.989822 9.813703,2.90834 3.476075,0.954243 4.180893,1.314827 5.231524,2.676398 0.524193,0.678812 1.186693,2.323663 1.120153,2.779744 -0.0179,0.136602 -0.022,0.521714 -0.004,0.853925 0.1529,2.841868 -2.637235,5.588617 -6.124225,6.02872 z M 48.296607,89.565474 c -2.029481,0.0509 -3.926343,-1.008464 -4.662643,-2.605216 -0.643321,-1.3948 -0.503349,-2.36258 0.926434,-6.406404 0.634104,-1.793551 2.30461,-7.270281 2.844709,-9.326374 0.82342,-3.134626 2.483905,-5.44207 4.393575,-6.105564 0.711256,-0.247134 0.705052,-0.11975 -0.03577,0.747484 -1.347354,1.576736 -1.776012,3.707121 -1.127568,5.603447 0.209442,0.61168 0.209442,0.61168 -0.423286,1.148711 -0.706572,0.600125 -1.060828,1.235515 -2.23732,4.011352 -0.410768,0.969183 -1.187092,2.715151 -1.725079,3.879909 -1.942891,4.206363 -2.00593,4.389186 -1.631886,4.734129 0.640776,0.591046 0.779647,0.449973 1.852766,-1.88398 1.616823,-3.516016 3.456568,-7.704888 3.732014,-8.497575 1.042993,-3.000989 4.704938,0.124633 5.199819,4.438255 0.594485,5.181502 -2.848781,10.154031 -7.105747,10.261867 z M 50.73103,87.1012 c 0.693325,-0.58458 1.244958,-1.324024 1.462613,-1.960693 0.104686,-0.306493 0.248373,-0.70814 0.31798,-0.89141 0.269489,-0.706015 -0.04815,-1.337161 -0.651161,-1.289426 -0.246447,0.01995 -0.394329,0.227325 -0.806575,1.133414 -0.616908,1.356303 -1.06988,1.910302 -1.910165,2.336381 -0.879367,0.446052 -0.996193,0.986887 -0.3067,1.420731 0.248854,0.156755 1.324313,-0.268595 1.893403,-0.74886 z m 25.816135,-8.810012 c 0.455888,-0.96009 0.427894,-0.933547 0.842424,-0.799484 0.289642,0.09382 0.283176,0.136051 -0.16886,1.081649 -0.470264,0.984005 -0.470264,0.984005 -0.775967,0.780767 -0.300097,-0.199399 -0.298377,-0.219621 0.102554,-1.062912 z M 42.524204,89.367113 c -0.479756,-0.232346 -0.17512,-0.969341 0.352165,-0.851668 0.342466,0.07614 0.322382,0.781276 -0.02064,0.900469 -0.07408,0.02545 -0.222923,0.0039 -0.331462,-0.04883 z M 92.970035,71.174119 c -0.08275,-0.02201 -0.367572,-0.03095 -0.630802,-0.01307 -0.426656,0.02958 -3.732577,-0.785472 -5.490286,-1.352636 -0.365647,-0.117618 -0.735324,-0.213432 -0.822973,-0.212125 -0.187913,-2.34e-4 -0.04058,-1.074887 0.479963,-3.519827 0.19541,-0.91708 0.336757,-1.719665 0.314472,-1.783729 -0.0227,-0.06466 0.01169,-0.134332 0.08171,-0.15875 0.06741,-0.02339 0.09506,-0.118236 0.06328,-0.209854 -0.209029,-0.601638 1.493991,-0.426587 2.834907,0.291086 0.04402,0.02132 0.690759,0.198368 1.432562,0.3858 3.549837,0.897236 3.944853,1.130697 4.453683,2.632309 0.581351,1.715236 -1.253446,4.37706 -2.716595,3.941146 z M 59.332612,80.18816 c -1.915771,-0.800384 -2.675292,-1.208586 -2.773375,-1.490889 -0.174707,-0.502867 -0.02201,-0.47219 2.241922,0.446878 1.076621,0.437111 1.076621,0.437111 1.26562,0.07655 0.22368,-0.427207 0.371149,-0.497365 0.666982,-0.318393 0.184336,0.111427 0.16205,0.237917 -0.137909,0.799669 -0.433534,0.810323 -0.461391,0.821466 -1.261755,0.489385 z m 3.05847,-1.200243 c -1.395282,-0.365509 -1.96094,-1.82319 -1.202334,-3.098013 0.558099,-0.937653 1.701156,-1.193227 2.708513,-0.604665 2.151267,1.256012 0.899644,4.333053 -1.506372,3.702926 z m 1.488323,-1.112731 c 0.608586,-0.531824 0.414964,-1.643668 -0.358149,-2.055598 -0.70869,-0.377821 -1.328287,-0.224437 -1.684517,0.417026 -0.736321,1.325124 0.901452,2.636485 2.042419,1.638757 z m -1.232164,-0.580935 c -0.283865,-0.171543 -0.228632,-0.553353 0.09423,-0.665537 0.389858,-0.135432 0.736355,0.08859 0.619591,0.400038 -0.110258,0.294594 -0.454101,0.422047 -0.714469,0.262817 z m 42.812699,-14.43126 c -0.39336,0.05778 -0.84691,0.124565 -1.00777,0.148432 -0.28366,0.04058 -0.30829,-0.0021 -0.7822,-1.36607 -0.48829,-1.40542 -0.48884,-1.40844 -0.18434,-1.415792 0.98275,-0.02339 2.41914,-0.501148 2.4919,-0.829363 0.0944,-0.423836 0.31702,-0.03577 0.83457,1.453747 0.64394,1.853406 0.74882,1.697765 -1.35239,2.00875 z M 57.860101,77.044324 c -0.971844,-0.06603 -2.177129,-0.898316 -1.957335,-1.352155 0.06259,-0.128692 0.285515,-0.09189 0.798974,0.130892 1.454414,0.632728 1.987008,0.541798 2.615801,-0.446465 0.642014,-1.009255 1.215609,-0.837396 0.738687,0.220997 -0.446878,0.991688 -1.236216,1.511833 -2.195845,1.446648 z m 7.181256,-3.31348 c -1.498544,-0.992163 -2.049235,-2.181704 -2.046388,-4.42082 6.4e-4,-0.70653 -0.01513,-1.378072 -0.03577,-1.491116 -0.0509,-0.27279 1.924032,-0.910958 5.345576,-1.727637 1.351674,-0.32252 2.531138,-0.612162 2.621119,-0.643458 0.176082,-0.06122 0.23661,0.182136 0.367709,1.481624 0.113009,1.117478 0.881224,2.68305 1.786825,3.629714 0.289435,0.302848 0.533062,0.572268 0.541866,0.597717 0.120094,0.345631 -8.184885,2.836449 -8.580953,2.575028 z m 10.081706,-3.630147 c -1.858227,-0.801368 -2.669988,-2.67525 -1.803105,-4.160706 0.433259,-0.741802 0.650611,-0.861731 0.797358,-0.43938 0.05847,0.167622 0.04058,0.327265 -0.03645,0.354159 -0.07862,0.02751 -0.09657,0.06995 -0.03921,0.09946 0.06122,0.02958 -0.01032,0.359731 -0.149877,0.738006 -0.39935,1.087021 0.436492,2.543037 1.726833,3.008548 0.197336,0.07126 0.313578,0.2005 0.309313,0.343223 -0.01032,0.327748 -0.153659,0.337377 -0.805343,0.05709 z m 2.199463,-0.713203 c -0.257589,-0.209029 -0.09079,-0.473084 0.361451,-0.573369 0.533612,-0.119887 1.45039,-0.677229 2.349126,-1.433648 0.634722,-0.533613 0.634722,-0.533613 0.318118,0.04402 -0.28132,0.512772 -0.896783,1.091939 -1.56774,1.47454 -0.500803,0.285446 -1.358669,0.572543 -1.460157,0.492756 z m -19.139609,6.279177 c -0.282007,-0.0089 -0.431402,-0.434841 -0.216045,-0.615945 0.230971,-0.194585 0.503417,-0.03095 0.512909,0.308901 0.0083,0.317499 0.0089,0.317293 -0.296727,0.306975 z m 0.0076,-0.534988 c -0.011,-0.03233 -0.04608,-0.04952 -0.07876,-0.03783 -0.03233,0.011 -0.04952,0.04608 -0.03783,0.07876 0.011,0.03233 0.04608,0.04952 0.07876,0.03783 0.03233,-0.011 0.04952,-0.04608 0.03783,-0.07876 z m 18.224042,-6.795539 c -0.159024,-0.08673 -0.375619,-0.100353 -0.481338,-0.02958 -0.353059,0.237023 -0.804821,-0.128898 -0.606384,-0.492 0.186675,-0.340816 0.972209,-0.294112 0.894974,0.05365 -0.01857,0.09244 0.0089,0.110396 0.06603,0.04264 0.107094,-0.131855 0.347006,-0.01582 0.588569,0.285584 0.203527,0.252569 -0.08921,0.342673 -0.459603,0.13784 z M 61.66761,73.357838 c -0.128348,-0.153453 -0.223474,-0.297346 -0.209786,-0.318875 0.217627,-0.352302 0.4812,-0.494888 0.551564,-0.298652 0.04265,0.119887 0.150977,0.329811 0.246241,0.465656 0.259309,0.381741 -0.278156,0.519718 -0.586919,0.152971 z m 41.44837,-14.51501 c -3.197845,-0.474322 -2.81302,-5.269997 0.39673,-4.943357 2.06139,0.209786 3.03609,2.207717 1.92377,3.943374 -0.42652,0.665193 -1.48895,1.123145 -2.32051,0.999922 z m 1.62988,-1.451208 c 1.07679,-1.307757 -0.38827,-3.150302 -2.04773,-2.575358 -0.43732,0.151596 -0.56896,0.279944 -0.84191,0.822608 -0.90919,1.807796 1.59402,3.326074 2.88959,1.752619 z m -2.08333,-0.687547 c -0.32603,-0.666981 0.48808,-1.368849 1.11895,-0.964733 0.42727,0.273891 0.49083,0.677505 0.18729,1.192306 -0.26976,0.457057 -1.0366,0.323758 -1.30632,-0.22767 z m 0.98293,-0.08371 c 0.0103,-0.327748 -0.33009,-0.492618 -0.46085,-0.222923 -0.075,0.154966 -0.0358,0.227325 0.17843,0.331186 0.25635,0.124289 0.27499,0.117067 0.28331,-0.105718 z M 77.210384,66.832 c -1.858221,-0.256832 -3.221918,-2.277647 -2.676695,-3.966491 0.857852,-2.657629 4.977371,-2.150917 4.529172,0.557411 -0.198781,1.200972 -0.895978,1.563722 -1.969153,1.024201 -1.035034,-0.520062 -1.049362,-1.989168 -0.01788,-1.825906 0.396048,0.06259 0.477486,0.362001 0.171612,0.619728 -0.335589,0.281113 -0.06906,0.790445 0.392265,0.749595 0.655563,-0.05778 0.87936,-0.883679 0.388207,-1.434708 -1.523919,-1.709025 -3.675736,0.383049 -2.372031,2.306213 1.199871,1.770572 3.763577,1.349796 4.587699,-0.752911 1.164957,-2.972079 -2.386393,-5.424558 -5.24959,-3.625387 -0.541454,0.340335 -1.438856,1.424226 -1.362081,1.645202 0.02682,0.07731 -0.01032,0.192178 -0.08447,0.2536 -0.187431,0.158337 -0.331943,1.417416 -0.182685,1.594338 0.07394,0.08715 -0.03026,0.397148 -0.256351,0.76697 -0.457402,0.745805 -0.709331,0.884312 -0.537052,0.294388 0.06809,-0.232553 0.09664,-0.765457 0.06328,-1.183949 -0.391234,-4.944767 6.444715,-6.71961 8.337444,-2.164721 0.656732,1.580052 0.129792,3.40329 -1.322861,4.578193 -0.379816,0.3067 -1.84192,0.644077 -2.436824,0.561951 z m -20.926531,7.219671 c -4.405611,-0.419571 -6.144322,-5.600193 -2.731149,-8.137507 2.634111,-1.958051 6.566646,-0.08254 6.261569,2.986166 -0.288954,2.906489 -3.380151,4.134403 -5.541901,2.20143 -0.50493,-0.451486 -0.975283,-1.710978 -0.788767,-2.102576 0.262405,-0.544068 0.484846,-0.463386 0.683145,0.249817 0.883068,3.168309 5.562384,1.935085 4.784918,-1.261246 -0.787233,-3.236183 -5.823082,-2.447567 -6.329024,0.991152 -0.443163,3.011678 2.872456,5.242498 5.805564,3.906101 2.135289,-0.972704 3.194969,-3.598734 2.388745,-5.919226 -0.48918,-1.40789 -1.789824,-2.407708 -3.417775,-2.627192 -0.942358,-0.126972 -1.479114,-0.762485 -0.67895,-0.803486 4.345806,-0.223061 6.690564,4.799348 3.976734,8.51832 -0.942165,1.291201 -2.838326,2.149286 -4.416912,1.999155 z m 35.58612,-13.28314 c -5.696592,-1.653848 -5.621268,-1.614773 -5.647612,-2.927736 -0.02958,-1.466072 0.410561,-2.752059 1.153492,-3.371849 0.194172,-0.162119 1.293993,0.569173 2.832507,1.882405 0.563189,0.480787 1.770736,1.44087 2.683112,2.133322 1.499342,1.138022 1.641797,1.27851 1.481899,1.461484 -1.149482,1.3159 -0.98708,1.262532 -2.504505,0.81919 z m 5.414169,-2.967705 c 0.0578,-0.798197 0.576603,-1.873855 1.153693,-2.390444 0.44653,-0.399762 1.624075,-1.001159 1.674645,-0.855616 0.0591,0.169548 -0.206415,0.681907 -0.385795,0.744224 -0.0977,0.0337 -0.11384,0.105099 -0.0365,0.169204 0.0932,0.07538 0.0303,0.124908 -0.20559,0.159575 -0.18674,0.0282 -0.30113,0.08274 -0.25477,0.117617 0.0502,0.04058 -0.0681,0.161157 -0.25718,0.272103 -0.4424,0.260753 -1.0235,1.481479 -1.10128,2.314934 -0.033,0.355191 -0.12429,0.63149 -0.20236,0.614225 -0.0785,-0.01651 -0.117,0.06975 -0.0862,0.195961 0.0289,0.126009 -0.0323,0.03301 -0.14768,-0.204971 -0.130683,-0.271346 -0.183373,-0.695395 -0.152833,-1.139838 z m 2.269763,0.235029 c -0.15758,-0.09526 -0.18826,-0.193829 -0.13529,-0.431402 0.13151,-0.577221 0.57997,-0.443233 0.56683,0.168585 -0.008,0.357255 -0.14238,0.439037 -0.43257,0.263917 z m -4.591318,-0.05503 c -2.465788,-2.22375 -4.848961,-4.984311 -5.136615,-5.949944 -0.840423,-2.821309 2.245485,-4.731859 3.985723,-2.4677 1.172235,1.525459 3.138337,4.194491 3.326827,4.516743 0.18324,0.313509 0.16144,0.380778 -0.258,0.831343 -0.61058,0.654876 -1.008909,1.677956 -1.083552,2.781993 -0.0736,1.091739 0.02064,1.059198 -0.834713,0.287441 z M 55.968652,70.00152 c -1.200965,-0.498052 -1.388761,-2.131926 -0.315504,-2.746124 1.063559,-0.608378 2.520002,0.511603 2.220139,1.707643 -0.20504,0.818185 -1.168686,1.343612 -1.904291,1.038804 z m 1.089318,-0.982107 c 0.347694,-0.40554 -0.345768,-1.372433 -0.857102,-1.194782 -0.246241,0.08557 -0.547094,0.792275 -0.452656,1.064185 0.160744,0.462629 0.957084,0.541797 1.309737,0.130411 z m 11.535232,-4.261884 c -0.557273,0.120781 -1.602089,0.384767 -2.322706,0.582723 -3.800253,1.042195 -3.390104,1.023479 -3.807117,0.175326 -0.24287,-0.489386 -0.623442,-0.997962 -1.086477,-1.442102 l -0.714544,-0.685965 1.524289,-0.444402 c 0.837328,-0.247204 2.145167,-0.604802 2.904502,-0.799422 0.758207,-0.197886 2.619268,-0.683557 4.133199,-1.086511 3.248509,-0.864331 2.9673,-0.891143 2.479661,0.242251 -0.217833,0.506787 -0.446396,1.326265 -0.508025,1.821539 -0.126147,1.015989 -0.310827,1.132066 -2.602974,1.637333 z M 101.11124,52.904708 c -0.5711,0.04815 -1.242555,0.157924 -1.491735,0.244521 -1.22063,0.424111 -0.99289,0.595447 -3.421803,-2.575482 -1.259038,-1.643262 -2.321145,-2.918203 -2.518805,-3.022683 -0.721793,-0.382016 -3.033481,-0.28689 -3.125966,0.128279 -0.01995,0.08921 -0.09843,0.148501 -0.173675,0.133162 -0.07848,-0.01651 -0.115279,0.03302 -0.09004,0.105512 0.02614,0.0747 -0.01651,0.120094 -0.101179,0.100698 -0.08048,-0.01582 -0.126009,0.02889 -0.101178,0.100697 0.02614,0.0747 -0.0227,0.122295 -0.103793,0.101591 -0.08398,-0.02201 -0.302573,0.156067 -0.489591,0.382704 -0.42645,0.524602 -0.524259,0.479963 -0.354435,-0.160812 0.250642,-0.946815 0.624886,-1.242207 2.226535,-1.75652 1.199652,-0.387656 1.506984,-0.530861 2.027989,-0.962359 0.734312,-0.60831 0.543311,-0.695554 1.631054,0.747119 1.196264,1.586215 1.138764,1.527626 1.541154,1.565346 0.972753,0.09093 0.925393,-0.602601 -0.13709,-2.004685 -1.845825,-2.435792 -1.823753,-2.396786 -1.749248,-3.08879 0.08054,-0.751047 -0.03301,-0.858657 1.982868,1.865663 0.796553,1.076449 1.710723,2.296549 2.031223,2.711436 0.93026,1.204384 3.397555,4.524866 3.612495,4.861741 0.24108,0.37789 0.18695,0.401826 -1.19542,0.517999 z m -31.307959,5.970875 c -2.495267,-1.16934 -5.52,-2.538457 -7.186401,-3.25276 -1.864314,-0.799187 -6.078237,-2.694674 -9.954218,-4.477619 -6.498565,-2.989241 -11.454929,-5.255313 -15.198395,-6.948793 -1.025818,-0.464005 -2.633121,-1.195353 -3.571758,-1.625132 -0.938794,-0.42982 -2.177218,-0.984713 -2.752238,-1.233258 -0.575019,-0.248785 -2.612658,-1.170199 -4.528105,-2.048238 -3.848978,-1.764299 -3.644138,-1.671855 -6.67797,-3.01436 -1.189121,-0.526184 -2.966412,-1.324498 -3.949572,-1.774052 -0.983159,-0.449561 -2.257803,-1.021966 -2.832472,-1.27201 -0.574813,-0.250299 -2.03497,-0.910209 -3.2452354,-1.46705 -1.210195,-0.55686 -3.0705341,-1.394704 -4.1340521,-1.861996 -2.6973362,-1.185049 -3.9665401,-1.782863 -4.0020524,-1.885066 -0.01582,-0.0454 0.094851,-0.03714 0.2463092,0.02132 0.8760035,0.342948 2.9722105,1.067486 4.2520342,1.469305 0.812421,0.255114 1.5770601,0.50892 1.7001591,0.564358 0.122708,0.05571 0.776799,0.27623 1.452254,0.490899 1.2150794,0.385868 2.7098684,0.903413 2.8740244,0.995073 0.04608,0.02751 0.826577,0.308419 1.732851,0.628119 0.90644,0.319287 1.997649,0.716016 2.424918,0.881327 0.427344,0.165352 2.082354,0.783141 3.678136,1.372996 2.518557,0.931002 4.776306,1.795189 5.044928,1.931013 0.04402,0.02132 1.152027,0.463592 2.458758,0.978936 1.306752,0.515385 2.952402,1.180028 3.657027,1.476961 1.675872,0.706352 5.79515,2.409723 7.179833,2.96895 1.315308,0.531205 2.383379,0.992094 5.785004,2.496183 1.424879,0.630114 2.947311,1.300554 3.383171,1.489967 0.435735,0.189426 0.908599,0.397149 1.050586,0.461529 4.585835,2.080036 8.156292,3.655954 10.827464,4.779105 1.452701,0.610787 3.299841,1.409623 4.104868,1.77507 0.804903,0.365509 2.227588,1.007701 3.161244,1.427128 0.933664,0.419434 2.69301,1.222886 3.909623,1.785456 1.216579,0.562638 2.625651,1.210106 3.131159,1.438814 1.278531,0.578321 1.290871,0.563326 -1.039072,1.260214 -2.039551,0.610305 -2.039551,0.610305 -2.983009,0.167897 z m -15.875005,4.833278 c -0.394604,-1.282568 -0.394604,-1.282568 -0.662236,-1.117959 -1.756766,1.085123 -3.540296,2.034131 -3.537972,1.882377 0.0015,-0.1214 0.684934,-2.16547 0.972808,-2.91085 0.442958,-1.146957 3.568511,0.710816 4.185997,2.488073 0.257589,0.741404 0.257589,0.741404 -0.152009,0.840898 -0.409873,0.0987 -0.409873,0.0987 -0.806843,-1.182167 z m 19.948791,-7.982686 -0.966693,-0.427069 0.555279,-0.840993 c 0.840972,-1.273737 2.720295,-0.490004 1.992559,0.830869 -0.54166,0.983187 -0.421016,0.949793 -1.581173,0.437248 z m 12.708836,-5.947626 c -1.37268,-1.596064 -1.53621,-3.985627 -0.383117,-5.600455 0.52529,-0.735894 0.760594,0.09547 0.341985,1.208538 -0.460359,1.224138 -0.276573,3.412912 0.297277,3.540758 0.06328,0.01444 0.11012,0.07387 0.09671,0.131718 -0.01651,0.05709 0.238192,0.362895 0.557892,0.67943 0.840471,0.832547 0.930995,1.432624 0.145475,0.963564 -0.296796,-0.177252 -0.772377,-0.592559 -1.05666,-0.923092 z m -2.20661,2.178326 c -8.328963,1.551803 -9.474235,1.362239 -10.578836,-1.751016 -0.505206,-1.433119 -0.812449,-1.240226 2.62865,-1.657102 1.329141,-0.161088 2.072264,-0.263436 3.261577,-0.447978 0.178903,-0.02545 0.803081,-0.08825 1.388576,-0.134401 0.585405,-0.04608 1.18227,-0.09836 1.326369,-0.116448 1.619037,-0.202082 1.559052,-0.230764 1.984133,0.954154 0.445571,1.240487 0.671246,1.642732 1.246747,2.219863 0.501422,0.502248 0.567384,0.675304 0.266875,0.684246 -0.128898,0.0083 -0.814176,0.115417 -1.520232,0.247134 z m -14.782751,1.9137 c -0.399005,-0.197061 -0.761199,-0.453481 -0.805171,-0.569585 -0.109433,-0.294044 0.297414,-0.407672 0.68906,-0.195686 0.978111,0.535401 2.288302,0.05228 2.652765,-0.979919 0.09664,-0.273135 0.209236,-0.586025 0.249817,-0.69554 0.123258,-0.334832 0.355123,-0.159781 0.514904,0.381741 0.434635,1.470963 -1.742652,2.825017 -3.303245,2.05436 z m 18.207907,-5.857164 c -0.278981,-0.0089 -0.366059,-0.257245 -0.205659,-0.587537 0.277261,-0.572544 0.868747,-0.33098 0.621653,0.257314 -0.152077,0.358699 -0.127522,0.339234 -0.416338,0.329604 z m 2.759879,-2.459535 c -2.258505,0.103105 -4.176793,-3.353553 -2.539797,-4.576776 0.115761,-0.08391 0.187569,-0.216595 0.16212,-0.290054 -0.02545,-0.07408 -0.003,-0.113285 0.04815,-0.08955 0.05227,0.02545 0.254357,-0.09568 0.448804,-0.269557 0.804814,-0.720157 2.215895,-0.857261 3.158996,-0.3067 2.388469,1.394449 2.162114,4.227843 -0.434841,5.439594 -0.06988,0.03164 -0.449355,0.07312 -0.84402,0.09155 z m 1.283594,-1.213662 c 1.157322,-0.915443 1.082714,-2.569161 -0.154898,-3.43323 -2.0741,-1.448045 -4.507622,1.293779 -2.820869,3.177642 0.710692,0.794338 2.139691,0.916929 2.975787,0.255595 z m -1.184196,-0.654532 c -0.0619,-0.05365 -0.212469,-0.06259 -0.328092,-0.02201 -0.257933,0.08962 -0.836839,-0.379884 -0.981309,-0.795707 -0.145612,-0.41909 0.307182,-1.157096 0.819575,-1.335111 1.154042,-0.400932 2.057421,1.404251 1.008258,2.01547 -0.135226,0.07607 -0.279187,0.162532 -0.322176,0.187638 -0.04333,0.02201 -0.131787,0.0021 -0.196373,-0.04952 z m 0.324239,-0.781105 c 0.08969,-0.112734 0.06259,-0.271414 -0.09079,-0.521162 -0.273822,-0.446603 -1.008223,-0.240257 -0.910649,0.258139 0.09306,0.477349 0.704812,0.639125 1.002357,0.264881 z m -3.520536,3.305103 c 0.0076,-0.237849 0.327885,-0.353472 0.400794,-0.143617 0.08845,0.2547 -0.108056,0.573437 -0.270658,0.440619 -0.07236,-0.06122 -0.132749,-0.193416 -0.131649,-0.295076 z m -17.30029,6.272891 c -0.03989,-0.282489 0.336758,-0.516761 0.554041,-0.343911 0.272721,0.216939 0.243558,0.304911 -0.146231,0.440412 -0.290399,0.100904 -0.381604,0.08165 -0.40781,-0.09643 z m 11.528513,-5.889746 c -0.65914,0.05021 -1.401734,0.125871 -1.650086,0.168447 -0.248097,0.04265 -0.633484,0.08391 -0.856455,0.09224 -0.223955,0.005 -1.040572,0.108883 -1.817516,0.22368 -0.776778,0.115485 -1.45627,0.1994 -1.509735,0.187432 -0.05434,-0.01032 -0.354847,0.02889 -0.670558,0.09024 -1.14977,0.224024 -1.594674,0.211849 -1.579288,-0.04402 0.08474,-1.397132 -0.193966,-2.893145 -0.712061,-3.826699 -0.231521,-0.416889 -0.401207,-0.798534 -0.377545,-0.847754 0.03783,-0.07882 6.000114,-0.699426 7.261236,-0.760106 0.451968,-0.02132 4.790908,-0.437936 5.092787,-0.488491 1.418152,-0.237849 1.439103,-0.230558 1.373278,0.474872 -0.01857,0.197956 -0.124702,0.391371 -0.237092,0.43044 -0.547094,0.190045 -1.70117,2.201877 -1.932616,3.369132 -0.148501,0.748419 -0.185712,0.762815 -2.384556,0.929695 z m -14.501989,5.30066 c -2.781484,0.129105 -5.001155,-1.894303 -5.395594,-4.918321 -0.483126,-3.704603 3.819106,-6.716329 7.372822,-5.16117 5.081293,2.223688 3.590645,9.821221 -1.977228,10.079491 z m 2.611455,-1.755831 c 1.450238,-1.317069 1.941144,-2.926677 1.4841,-4.86628 -0.422598,-1.794859 -2.909406,-3.548358 -4.331065,-3.054419 -0.09423,0.03301 -0.26887,0.01651 -0.388964,-0.03577 -0.176976,-0.07759 -0.186606,-0.06741 -0.05365,0.05503 0.144099,0.127591 0.129792,0.134744 -0.102692,0.05021 -0.822965,-0.298034 -2.728914,1.08138 -3.41417,2.470093 -1.992711,4.038865 3.499433,8.385028 6.803614,5.384169 z m -2.950806,-0.03439 c -1.556218,-0.156136 -2.660255,-0.965799 -3.116605,-2.285977 -1.049218,-3.03223 2.102473,-5.794641 4.93811,-4.328885 3.355025,1.73422 1.908218,6.98868 -1.821505,6.614862 z m 1.643434,-1.248899 c 0.02132,-0.04402 0.151046,-0.150014 0.284484,-0.226982 1.210106,-0.700045 1.215065,-3.221037 0.0083,-4.089522 -2.758938,-1.985447 -6.087241,1.578283 -3.663087,3.922588 0.829101,0.801911 3.047837,1.061309 3.370955,0.394122 z m -1.999595,-0.74941 c -0.999399,-0.125322 -1.479698,-1.763858 -0.782418,-2.669033 1.032978,-1.341026 3.276393,-0.213362 2.848278,1.431737 -0.251055,0.964444 -0.942103,1.378341 -2.065688,1.237598 z m 1.24209,-1.325138 c 0.167897,-0.487184 0.15249,-0.548125 -0.234135,-0.914852 -0.63204,-0.599506 -1.473439,-0.01444 -1.249112,0.86797 0.202219,0.795804 1.213751,0.827595 1.483206,0.04677 z m -8.139097,2.471751 c -1.639788,-0.718822 -1.911127,-1.951241 -0.546681,-2.483045 1.20783,-0.470608 1.323446,-0.4671 1.30872,0.011 -0.0057,0.203664 0.161225,0.975483 0.371424,1.714569 0.43938,1.543294 0.52357,1.486061 -1.133593,0.757196 z m -30.188441,2.456743 c -0.0835,-0.240394 -0.0037,-0.272515 5.32375,-2.123452 5.253676,-1.825322 5.41713,-1.874831 5.714221,-1.711549 0.304912,0.167141 0.297965,0.170236 -5.323751,2.123458 -5.547994,1.927574 -5.630629,1.952136 -5.71422,1.711543 z m -11.898238,-6.05532 c -0.25133,-0.297896 -0.05571,-0.384767 4.654218,-2.065592 4.836387,-1.724026 5.287145,-1.839209 5.450833,-1.368092 0.07786,0.224161 -9.94073,3.628531 -10.105051,3.433684 z m -9.8205814,-6.49203 c -0.10338,-0.297552 6.3767794,-2.653151 6.7718024,-2.461998 0.421979,0.204352 0.157511,0.327541 -3.211126,1.497946 -3.3947464,1.179457 -3.4773604,1.203861 -3.5609034,0.963398 z M 21.695963,32.251683 c -0.334006,-0.110395 -0.490417,-0.317499 -1.162316,-1.540921 -0.873651,-1.590321 -0.869146,-1.573173 -0.437524,-1.636556 0.317224,-0.04471 0.483333,0.135707 0.929867,1.012295 0.24514,0.481338 0.910518,1.669187 1.105874,1.973686 0.196373,0.305324 0.07394,0.359524 -0.437043,0.188257 z"
           id="path541" /></g></g></g></svg>
