<?xml version="1.0" encoding="UTF-8" standalone="no"?>
<!-- Created with Inkscape (http://www.inkscape.org/) -->

<svg
   width="512"
   height="512"
   viewBox="0 0 135.46666 135.46667"
   version="1.1"
   id="svg5"
   xml:space="preserve"
   inkscape:version="1.2.2 (732a01da63, 2022-12-09, custom)"
   sodipodi:docname="icon.svg"
   inkscape:export-filename="../db161e52/logo.png"
   inkscape:export-xdpi="5.6199999"
   inkscape:export-ydpi="5.6199999"
   xmlns:inkscape="http://www.inkscape.org/namespaces/inkscape"
   xmlns:sodipodi="http://sodipodi.sourceforge.net/DTD/sodipodi-0.dtd"
   xmlns="http://www.w3.org/2000/svg"
   xmlns:svg="http://www.w3.org/2000/svg"><sodipodi:namedview
     id="namedview7"
     pagecolor="#ffffff"
     bordercolor="#666666"
     borderopacity="1.0"
     inkscape:showpageshadow="2"
     inkscape:pageopacity="0.0"
     inkscape:pagecheckerboard="0"
     inkscape:deskcolor="#d1d1d1"
     inkscape:document-units="mm"
     showgrid="false"
     inkscape:zoom="1.4142136"
     inkscape:cx="143.54267"
     inkscape:cy="253.49777"
     inkscape:window-width="1869"
     inkscape:window-height="1016"
     inkscape:window-x="1011"
     inkscape:window-y="27"
     inkscape:window-maximized="1"
     inkscape:current-layer="g7069" /><defs
     id="defs2" /><g
     inkscape:label="Layer 1"
     inkscape:groupmode="layer"
     id="layer1"><g
       id="g6332"
       transform="matrix(-1,0,0,1,136.34861,0)"><g
         id="g7069"
         transform="rotate(19.159102,68.262497,67.733334)"><path
           style="fill:#ffffff;stroke-width:0.169975"
           d="m 70.514134,128.31517 c -1.107631,-0.55195 -1.837413,-1.42098 -2.181927,-2.59822 -0.325909,-1.11369 -0.213555,-1.98914 0.399955,-3.11636 0.395676,-0.727 1.674071,-1.83397 2.117961,-1.83397 0.07746,0 0.140832,-6.15734 0.140832,-13.68299 V 93.400649 h 1.18983 1.189823 v 13.586541 c 0,12.99152 0.01356,13.59085 0.309488,13.68478 0.868951,0.27579 1.842001,1.10354 2.31004,1.9651 1.905838,3.50822 -1.903641,7.45829 -5.476002,5.6781 z m 2.953969,-2.36232 c 0.680418,-0.51899 0.857862,-1.20524 0.520448,-2.01279 -0.732597,-1.75334 -3.337542,-1.19823 -3.337542,0.71121 0,1.50763 1.586142,2.24047 2.817094,1.30158 z m -15.7119,0.0202 c -3.2708,-1.18365 -3.506422,-5.99333 -0.368373,-7.51969 0.796884,-0.38762 0.850507,-0.62164 0.853128,-3.72335 l 0.0019,-2.21213 2.169548,-2.16473 2.169547,-2.16473 h 1.381742 c 1.103173,0 1.402549,-0.0542 1.48492,-0.26886 0.148497,-0.38699 0.122479,-18.475543 -0.02692,-18.706173 -0.06869,-0.106033 -0.507323,-0.369093 -0.974758,-0.584582 -0.467429,-0.215489 -1.136708,-0.56951 -1.487279,-0.786691 L 62.32225,87.447208 v 6.003546 6.003542 l -1.827231,1.777194 c -1.004978,0.97745 -2.553872,2.46108 -3.441993,3.29695 l -1.614762,1.51977 -0.08499,2.72737 -0.08499,2.72736 -3.436384,0.046 -3.436385,0.046 -0.17508,0.65021 c -0.267101,0.99193 -1.038706,1.92319 -2.058922,2.48492 -2.120633,1.16764 -4.711683,0.32289 -5.832002,-1.90137 -0.351407,-0.69768 -0.356919,-2.41266 -0.01041,-3.24343 0.54335,-1.30272 2.325425,-2.58115 3.603357,-2.58499 l 0.552422,-0.002 v -3.70071 -3.700707 l 1.402292,-1.366448 c 0.771264,-0.751541 1.725189,-1.646427 2.119837,-1.988627 l 0.717544,-0.622176 2.002061,0.08425 c 1.10113,0.04632 2.212404,0.0381 2.46949,-0.01831 L 53.653532,95.58297 V 93.471786 91.36061 h -2.139109 -2.13911 L 46.8826,93.783491 c -2.645552,2.571443 -10.677643,10.176029 -11.8724,11.240489 -0.433328,0.38607 -0.75573,0.84546 -0.825606,1.17639 -0.194572,0.92156 -0.912199,2.04764 -1.659391,2.6039 -2.067974,1.53952 -4.844646,1.07616 -6.143868,-1.02528 -0.625356,-1.01149 -0.792965,-2.69192 -0.36827,-3.69223 1.166998,-2.74875 4.598217,-3.5204 6.694978,-1.50564 l 0.725356,0.69698 0.463986,-0.36407 c 0.25519,-0.20025 2.792173,-2.59485 5.637745,-5.321342 2.845572,-2.726498 6.036331,-5.779522 7.090584,-6.7845 l 1.916823,-1.827238 h 3.888955 c 3.551687,0 3.913347,0.02698 4.170259,0.310838 0.527971,0.583399 0.173834,2.068822 -0.493216,2.068822 -0.204214,0 -0.245715,0.491372 -0.247648,2.932068 -0.0013,1.612635 -0.04844,3.104167 -0.104812,3.31451 -0.10151,0.378799 -0.131909,0.382448 -3.187695,0.382448 h -3.08521 l -1.312423,1.232314 -1.312424,1.23231 -0.03129,3.70222 -0.03129,3.70221 0.658775,0.67465 0.658775,0.67464 h 2.515127 2.515128 v -2.09227 -2.09227 l 3.171024,-3.04947 c 1.744057,-1.67722 3.280642,-3.129914 3.41462,-3.228225 0.20291,-0.148888 0.248181,-1.218404 0.270975,-6.401749 0.01503,-3.42265 -0.01086,-6.260846 -0.05763,-6.307113 -0.160304,-0.158686 -2.139225,-0.185597 -11.072477,-0.150566 l -8.947797,0.03508 -2.016471,1.91222 c -3.645976,3.457479 -3.731842,3.52715 -4.344594,3.525171 -0.39504,-0.0013 -0.809732,-0.200764 -1.409578,-0.678093 -0.467428,-0.371958 -0.926429,-0.677097 -1.019998,-0.678093 -0.09356,-0.0013 -0.896697,0.662521 -1.784735,1.47447 -1.423178,1.301245 -1.637491,1.572618 -1.807509,2.288813 -0.525735,2.214633 -2.142026,3.548488 -4.289711,3.540105 -1.17533,-0.0045 -2.101933,-0.411442 -2.945508,-1.293312 -1.222792,-1.278304 -1.500673,-2.969097 -0.752158,-4.576548 1.17975,-2.53354 4.468531,-3.275824 6.564611,-1.481658 0.372041,0.318457 0.754914,0.530508 0.850828,0.471225 0.09592,-0.0593 0.955755,-0.79105 1.910747,-1.626145 2.077777,-1.816913 2.350583,-1.879441 3.658008,-0.838452 0.469652,0.373933 0.929635,0.679888 1.022176,0.679888 0.09254,0 1.343659,-1.14395 2.780257,-2.542134 l 2.611992,-2.542141 9.476108,-0.0075 c 7.729605,-0.0064 9.476109,-0.04882 9.476109,-0.231748 0,-0.123346 -0.2894,-0.612148 -0.643113,-1.086232 -0.353713,-0.474078 -0.791796,-1.13805 -0.973512,-1.475484 L 55.955851,80.142358 H 45.529885 c -7.452668,0 -10.531871,0.05506 -10.797257,0.19312 -1.000294,0.520326 -2.077719,1.654585 -2.37256,2.497698 -0.405454,1.15943 -0.972253,1.789842 -2.109494,2.346247 -3.672983,1.797018 -7.523038,-1.920608 -5.725243,-5.528315 1.073184,-2.153596 3.89135,-3.005022 5.951178,-1.797969 0.387466,0.227053 0.898824,0.643788 1.13636,0.926082 0.237531,0.282295 0.478344,0.51326 0.535134,0.51326 0.05679,0 0.508486,-0.305955 1.003777,-0.679898 l 0.90052,-0.679905 h 10.47048 c 5.758765,0 10.509681,-0.06341 10.557599,-0.140954 0.04792,-0.07753 -0.02409,-0.510375 -0.159944,-0.961878 -0.135886,-0.451503 -0.247058,-1.114717 -0.247058,-1.473808 v -0.652884 l -19.759604,0.0093 -19.759597,0.0093 -0.509926,0.79391 c -0.996016,1.550614 -2.934676,2.246829 -4.8046605,1.725366 -1.1101304,-0.309572 -2.4388331,-1.640812 -2.749465,-2.754707 -0.594205,-2.130751 0.5357185,-4.43023 2.5211534,-5.13073 0.8507441,-0.300161 2.3325691,-0.342792 3.0066731,-0.0865 0.832268,0.316426 1.717524,1.161511 2.215943,2.115391 l 0.490261,0.938256 19.579204,3.4e-4 19.579211,3.41e-4 0.101337,-0.807381 c 0.05576,-0.444064 0.164557,-1.172741 0.241815,-1.619298 0.07726,-0.44655 0.09372,-0.840196 0.03655,-0.874765 -0.05718,-0.03456 -3.229472,-0.07099 -7.049591,-0.08094 l -6.945672,-0.01812 -0.947911,-0.866337 -0.947912,-0.866336 -0.345509,0.484376 c -1.141718,1.600596 -3.04764,2.30129 -4.706395,1.730257 -1.554586,-0.535172 -2.579762,-1.680129 -2.908755,-3.24861 -0.172163,-0.820782 -0.15785,-1.092072 0.100925,-1.913002 1.054336,-3.344736 5.371377,-4.156421 7.386839,-1.388865 0.342297,0.47003 1.277161,1.530771 2.077481,2.3572 l 1.455126,1.502607 h 6.803368 6.803375 l 0.750179,-1.487286 c 0.412598,-0.818 0.775677,-1.544647 0.806841,-1.614761 0.03116,-0.07012 -2.722431,-0.132038 -6.119101,-0.137614 -3.39667,-0.0058 -6.533871,-0.06914 -6.971562,-0.14127 -0.729615,-0.12023 -1.022298,-0.34556 -3.519335,-2.709467 L 37.86112,58.045602 h -9.342368 c -5.138298,0 -9.463356,0.04645 -9.611229,0.103173 -0.14788,0.05673 -0.269151,0.228845 -0.269504,0.382449 -0.0019,0.795791 -1.302588,2.299671 -2.464004,2.848732 -3.610533,1.706886 -7.2470077,-2.163425 -5.390463,-5.737083 0.842342,-1.621418 2.836321,-2.568527 4.583339,-2.177014 1.028016,0.23038 1.742052,0.680086 2.56588,1.616003 l 0.663753,0.754066 H 28.81049 39.02445 l 2.767697,2.632409 2.767703,2.632408 7.258707,0.0019 7.258706,0.0019 0.432661,-0.432661 c 0.42914,-0.429153 0.432667,-0.455878 0.432667,-3.280706 V 54.54321 l -3.403347,-3.391377 -3.403358,-3.391377 -0.03861,-10.280825 -0.03861,-10.280823 -0.764885,-0.113302 c -1.07267,-0.158893 -1.56561,-0.378453 -2.302716,-1.025637 -0.784729,-0.689 -1.432846,-2.026643 -1.435075,-2.961823 -0.008,-3.361287 3.916347,-5.411668 6.615484,-3.456427 1.138731,0.824896 1.612514,1.709803 1.685108,3.14737 0.05551,1.099626 0.0097,1.33096 -0.420249,2.120901 -0.265412,0.487658 -0.617673,0.97102 -0.782789,1.074137 -0.281569,0.17584 -0.300154,0.821041 -0.299313,10.387596 l 6.43e-4,10.200108 2.29376,2.37294 c 1.261576,1.305119 2.294198,2.337722 2.294724,2.294666 5.08e-4,-0.04304 0.01966,-4.954448 0.04246,-10.914208 -0.02128,-9.942775 -0.04342,-10.403817 -0.04342,-17.29494 0,-3.833126 -0.01869,-4.079401 -0.309674,-4.079401 -1.37208,0 -3.205966,-1.448117 -3.693773,-2.916767 -0.664004,-1.999134 0.399756,-4.338878 2.340728,-5.148432 0.811474,-0.338455 2.513959,-0.338455 3.325432,0 2.693053,1.123239 3.33492,4.770735 1.199536,6.816559 l -0.482602,0.462366 V 38.35462 58.54473 l 0.594327,-0.403321 c 0.326878,-0.221829 1.009398,-0.575363 1.516715,-0.785628 0.601586,-0.249351 0.955677,-0.506328 1.018115,-0.738892 0.05268,-0.19612 0.09751,-8.961566 0.0997,-19.478772 l 0.0039,-19.122192 0.606495,-0.763031 c 0.333566,-0.419668 0.696145,-0.820063 0.80573,-0.889766 0.109578,-0.0697 0.753783,-0.127907 1.431555,-0.129338 l 1.232364,-0.0026 v 0.500237 c 0,0.370636 -0.242207,0.761846 -0.934864,1.51 l -0.934863,1.009762 v 18.388534 c 0,17.432873 0.01548,18.38399 0.297455,18.301118 1.002062,-0.294488 3.388447,-0.481119 5.043451,-0.39443 6.250368,0.327393 11.654739,3.959325 14.467316,9.722581 1.253447,2.568436 1.61672,4.036905 1.723998,6.968973 0.07153,1.954996 0.02717,2.667806 -0.248644,3.994414 -1.346625,6.477183 -5.924394,11.424343 -12.35989,13.357224 -1.378131,0.413928 -1.807785,0.461268 -4.33436,0.477605 -1.542528,0.01 -3.206153,-0.04189 -3.696959,-0.115206 l -0.892412,-0.133369 v 10.289347 10.28935 h -1.593517 c -2.400313,0 -2.501861,0.0401 -4.202817,1.65876 l -1.512591,1.43942 v 2.27098 2.27098 l 0.507632,0.26251 c 1.419766,0.73419 2.546883,2.37869 2.550255,3.72092 0.0072,2.8591 -3.022836,4.93982 -5.754185,3.95138 z m 2.535743,-2.32194 c 0.41775,-0.22357 0.840459,-1.03749 0.840459,-1.61828 0,-0.28556 -0.211486,-0.66187 -0.577913,-1.02829 -0.70016,-0.70016 -1.652523,-0.79292 -2.367408,-0.2306 -1.227212,0.96533 -0.467191,3.05219 1.111589,3.05219 0.366446,0 0.813413,-0.0788 0.993273,-0.17502 z M 45.431491,112.41737 c 0.822278,-0.77249 0.668758,-2.09191 -0.314994,-2.70719 -0.76405,-0.47787 -1.595239,-0.34156 -2.233058,0.3662 -0.412013,0.4572 -0.472832,0.64246 -0.396852,1.20893 0.202544,1.51007 1.863059,2.1484 2.944904,1.13206 z m -14.201616,-5.57564 c 0.691057,-0.69106 0.692534,-1.63737 0.0039,-2.37475 -1.222259,-1.30844 -3.437393,-0.11986 -3.002908,1.61127 0.31924,1.27194 2.050114,1.71256 2.999189,0.76348 z M 24.554561,94.507329 c 1.28099,-1.077887 0.439464,-3.143779 -1.281414,-3.145764 -0.363908,-3.41e-4 -0.731639,0.161891 -1.087851,0.480161 -0.453912,0.40557 -0.540768,0.607221 -0.5551,1.288667 -0.0149,0.708056 0.05159,0.86915 0.538115,1.303937 0.728517,0.651047 1.665218,0.679706 2.38625,0.073 z m 50.40693,-7.311253 c 3.468544,-0.716449 6.682881,-2.782855 8.822376,-5.671655 0.868264,-1.17235 2.043639,-3.683455 2.436906,-5.206286 0.428286,-1.658409 0.429127,-4.986217 0.0019,-6.714014 -1.345926,-5.440661 -5.887167,-9.91243 -11.237105,-11.065186 -1.535442,-0.330849 -4.673279,-0.294134 -6.289081,0.07358 -0.747886,0.170198 -2.052267,0.64213 -2.898624,1.048728 -4.483768,2.154058 -7.476918,6.071999 -8.316388,10.885878 -0.324033,1.858126 -0.325132,2.878612 -0.0051,4.713964 0.589361,3.379652 1.958009,5.931764 4.454018,8.30539 1.872233,1.780431 4.233544,3.036957 6.681076,3.555198 1.806166,0.382429 4.695056,0.416285 6.350188,0.07441 z m -45.50683,-4.295188 c 1.540613,-1.247944 0.501284,-3.423459 -1.495503,-3.130391 -1.312404,0.192618 -1.813926,1.955684 -0.834831,2.934779 0.397982,0.397988 0.64319,0.4961 1.232313,0.493067 0.438738,-0.0026 0.881748,-0.122266 1.098021,-0.297455 z M 12.33653,74.603277 c 0.441655,-0.371631 0.522966,-0.55927 0.522966,-1.206822 0,-0.650841 -0.09067,-0.857445 -0.599659,-1.366439 -0.54211,-0.542111 -0.66694,-0.590633 -1.300751,-0.505621 -1.0205055,0.136882 -1.5840793,0.760195 -1.5840793,1.751997 0,0.660522 0.081974,0.848213 0.5551008,1.270949 0.7370535,0.658556 1.6646265,0.680116 2.4064225,0.05596 z m 23.919507,-7.706233 c 1.572009,-0.958557 0.810754,-3.242051 -1.080822,-3.242051 -1.884658,0 -2.426036,2.402452 -0.747032,3.315043 0.614094,0.333772 1.199068,0.310414 1.827854,-0.07299 z M 15.762148,58.908767 c 1.11579,-1.11579 0.307792,-3.072624 -1.26872,-3.072624 -1.012604,0 -1.803905,0.820493 -1.803905,1.870453 0,0.391115 0.161795,0.704991 0.577913,1.12111 0.783952,0.783951 1.760105,0.815668 2.494712,0.08106 z M 54.006527,24.233859 c 1.094089,-1.094085 0.345779,-2.902649 -1.200995,-2.902649 -0.929191,0 -1.337466,0.240419 -1.64069,0.966151 -0.327207,0.783109 -0.165708,1.465118 0.474501,2.003816 0.737273,0.620376 1.707072,0.592796 2.367184,-0.06732 z m 7.155456,-8.303271 c 0.714524,-0.728683 0.707888,-1.706919 -0.01651,-2.431305 -0.664949,-0.66495 -1.629582,-0.687975 -2.379685,-0.0568 -0.448072,0.377025 -0.522966,0.555047 -0.522966,1.243012 0,0.657063 0.08493,0.882104 0.467429,1.238498 0.257085,0.239542 0.582166,0.48012 0.722394,0.534614 0.471534,0.183245 1.271347,-0.06096 1.729326,-0.528016 z M 21.823778,68.857353 c -1.917107,-0.524656 -3.185132,-2.153602 -3.185132,-4.091722 0,-1.028633 0.878093,-2.705549 1.745906,-3.334188 2.322477,-1.68239 5.536685,-0.670724 6.494548,2.044146 1.093755,3.100017 -1.868764,6.253838 -5.055322,5.381764 z m 2.124828,-2.511292 c 0.162637,-0.08332 0.417994,-0.387993 0.567461,-0.677033 0.891551,-1.72407 -1.454252,-3.403781 -2.830944,-2.027089 -0.398682,0.398682 -0.496851,0.644712 -0.496851,1.245187 0,1.397243 1.417974,2.146696 2.760334,1.458935 z m 18.46434,-11.169959 c -1.548567,-1.484865 -2.975175,-2.785179 -3.170247,-2.889573 -0.240402,-0.128665 -2.14387,-0.189817 -5.908072,-0.189817 h -5.553395 l -0.641159,-0.507805 -0.64116,-0.507812 -0.627226,0.498458 c -0.86764,0.689515 -1.633938,0.904503 -2.957398,0.829724 -1.345856,-0.07605 -2.341769,-0.646421 -3.159005,-1.809204 -0.423577,-0.602672 -0.523005,-0.932372 -0.578761,-1.919111 -0.08504,-1.505062 0.233888,-2.389347 1.205235,-3.341679 0.826917,-0.810721 1.855954,-1.231401 3.012198,-1.231401 2.168461,0 3.734424,1.368257 4.100652,3.582948 0.147051,0.889252 0.279018,1.177932 0.712591,1.5588 l 0.532121,0.467429 h 5.770965 5.770965 l 2.139296,2.095585 c 2.960411,2.899922 3.722713,3.581285 4.149714,3.709121 0.525061,0.157189 6.23337,0.170988 6.23337,0.01503 0,-0.07115 -1.298611,-1.426281 -2.885807,-3.011415 l -2.8858,-2.882049 -0.04626,-2.980211 -0.04625,-2.980205 -3.68404,-0.04581 -3.68404,-0.04581 -0.538301,0.749569 c -1.056918,1.471733 -3.243111,2.171212 -4.8582,1.554406 -0.988655,-0.377572 -1.852781,-1.130482 -2.32567,-2.026357 -0.510895,-0.967878 -0.513606,-2.800879 -0.0058,-3.755545 0.974848,-1.831813 3.091486,-2.69994 5.173111,-2.121727 0.927277,0.25757 2.075901,1.363275 2.547351,2.452165 l 0.40636,0.938573 3.423813,0.0029 c 2.967009,0.0025 3.437573,-0.03297 3.526979,-0.265963 0.05673,-0.147882 0.10318,-1.26359 0.10318,-2.479357 v -2.210486 l -1.06234,-1.108278 c -0.584273,-0.609549 -1.439965,-1.425182 -1.901528,-1.812517 l -0.8392,-0.70424 -1.489836,-0.0093 -1.489836,-0.0093 -0.730515,-0.825507 C 39.109222,31.5063 38.663771,31.002259 38.521114,30.840238 38.316096,30.607391 37.9955,30.548584 36.991338,30.559636 c -0.980784,0.01079 -1.4254,-0.06739 -1.9503,-0.342959 -1.362752,-0.715428 -2.453108,-2.333682 -2.460907,-3.652372 -0.0064,-1.076037 0.613343,-2.429315 1.449498,-3.16533 2.552099,-2.246444 6.600169,-0.660521 6.841836,2.680444 0.0539,0.744871 -0.01567,1.178505 -0.287562,1.793184 -0.197244,0.445904 -0.358628,0.883749 -0.358628,0.97299 0,0.08924 0.276924,0.500205 0.615386,0.913255 l 0.615392,0.751001 h 1.507316 1.50731 l 2.381638,2.316683 2.381638,2.316686 v 6.712572 6.712572 l 3.909422,3.879196 c 2.515648,2.496183 3.909428,4.000975 3.909428,4.220794 0,0.18789 -0.08877,0.536431 -0.197263,0.774546 l -0.197257,0.432855 H 50.943301 45.228317 Z M 24.600848,49.560159 c 0.734607,-0.734607 0.70289,-1.710759 -0.08107,-2.494711 -0.753828,-0.753828 -1.558819,-0.790164 -2.325689,-0.104966 -0.400398,0.357754 -0.550308,0.659199 -0.615507,1.237652 -0.0762,0.676005 -0.02692,0.828176 0.424855,1.311794 0.434613,0.465257 0.629917,0.547083 1.305806,0.547083 0.651779,0 0.884138,-0.08939 1.291603,-0.496852 z m 12.199594,-6.221754 c 0.640909,-0.539295 0.801721,-1.220662 0.473499,-2.006211 -0.264775,-0.633707 -1.003218,-1.134188 -1.671841,-1.1331 -0.68514,0.0012 -1.4597,0.606673 -1.647924,1.288366 -0.477939,1.730933 1.477572,3.002614 2.846266,1.850945 z m 0.685236,-15.226604 c 0.876448,-0.30553 1.305569,-1.524424 0.850179,-2.41489 -0.54256,-1.060917 -1.821822,-1.290161 -2.720202,-0.487457 -0.913516,0.816223 -0.686997,2.36303 0.416324,2.842968 0.666188,0.289788 0.77948,0.294414 1.453699,0.05938 z m 33.505277,5.074894 V 13.936732 L 70.217462,13.526393 C 68.708649,12.725969 67.832548,11.192359 67.976593,9.6037724 68.140392,7.7973512 69.2064,6.4437141 70.849435,5.9557856 c 1.099569,-0.3265378 1.391918,-0.3269033 2.482261,-0.00308 2.183578,0.6484533 3.451341,3.0820332 2.670582,5.1264184 -0.357272,0.935508 -1.406179,2.136883 -2.126017,2.435048 l -0.505653,0.209454 v 19.356533 19.356535 h -1.189823 -1.18983 z m 2.441294,-22.242151 c 0.41484,-0.460335 0.473095,-0.640444 0.395136,-1.2216626 -0.1325,-0.9878956 -0.767216,-1.5647177 -1.721757,-1.5647177 -1.278594,0 -2.016163,1.0232275 -1.614608,2.2399443 0.428491,1.298336 2.000448,1.590384 2.941229,0.546436 z"
           id="path360"
           sodipodi:nodetypes="ssssscccsssssssscsccccssssscccsscccccssssccccssccccccccssssssscssscscsssscccccccccccssscscssscsscssssssssccssscscssssssscsscscccssssssccccssccccsssssscccsscsccsscsssscccccccsscccccsscscssccscccssssscccsscccssccsscscssscssccccsscccssccsssssssssssccsccscsssscsscsssscssccssscssssssssssssssssssssssssscsssssscssscssscsssccsssssssscccsssscccccssscsscscscsscccsssscscssscccccccsssccccssssssssscssscssscsssssssccccccssssssssss" /><path
           d="m 80.848153,122.80171 -1.613413,-3.24305 -1.487279,0.11597 -1.487285,0.11597 v -12.94003 c 0,-12.418717 0.01253,-12.940013 0.31058,-12.940013 0.62075,0 3.552895,-1.077168 5.140431,-1.88841 0.894609,-0.457156 1.676043,-0.831195 1.736514,-0.831195 0.06045,0 0.921123,0.994352 1.912571,2.209679 0.991449,1.215322 1.860625,2.209674 1.931504,2.209674 0.229583,0 4.43613,-4.379305 4.43613,-4.618319 0,-0.127348 -0.439811,-0.490852 -0.977359,-0.807792 -1.306205,-0.770152 -3.272018,-2.078439 -3.272018,-2.177591 0,-0.04375 0.507098,-0.626361 1.126876,-1.294685 2.721095,-2.934188 4.75218,-7.11745 5.108354,-10.521264 l 0.102274,-0.977354 0.953141,0.0013 c 0.880199,0.0013 2.997203,0.193922 4.735092,0.430868 l 0.722394,0.09849 v -3.239937 c 0,-2.477668 -0.05,-3.240374 -0.21246,-3.241768 -0.116859,-0.0013 -1.491894,0.128253 -3.055628,0.287228 -1.563728,0.158974 -2.888287,0.24391 -2.943445,0.188751 -0.05518,-0.05518 -0.20902,-0.624226 -0.341905,-1.264582 -0.802518,-3.86726 -2.658593,-7.444303 -5.362658,-10.334955 l -1.060874,-1.13408 2.154121,-2.158916 c 1.184768,-1.18737 2.154116,-2.240459 2.154116,-2.34017 0,-0.146248 -2.862794,-2.540928 -4.094951,-3.425361 -0.262335,-0.188301 -0.500045,0.06558 -2.137016,2.282402 -1.013015,1.371848 -1.888422,2.563343 -1.945354,2.647764 -0.05692,0.08441 -0.783579,-0.184017 -1.614761,-0.596519 -1.787183,-0.886945 -2.993465,-1.363387 -4.443323,-1.754964 l -1.062346,-0.28692 V 37.021107 22.6702 l 0.722394,0.08903 c 0.397321,0.04897 1.069452,0.132388 1.493626,0.185383 l 0.771225,0.09635 1.64795,-3.319506 c 0.906366,-1.825729 1.736566,-3.319507 1.844891,-3.319507 0.10832,0 1.518007,0.3442 3.132646,0.764887 1.614634,0.420689 2.980627,0.764888 3.035548,0.764888 0.05493,0 0.100161,0.745766 0.10054,1.657257 3.4e-4,0.911492 0.05011,2.626789 0.110574,3.811773 l 0.109887,2.154518 1.971616,0.806703 c 1.084394,0.443686 2.891877,1.240763 4.016636,1.771281 l 2.045013,0.96458 1.10307,-0.866249 c 0.606687,-0.476435 1.922388,-1.540511 2.923768,-2.364613 l 1.82069,-1.498365 2.72617,2.072816 c 1.4994,1.140048 2.76545,2.13635 2.81344,2.214003 0.0949,0.15355 -0.61537,1.63586 -1.6216,3.384225 -0.34973,0.607661 -0.83367,1.46388 -1.07544,1.902708 l -0.43958,0.79787 2.17796,2.292118 c 1.19789,1.260665 2.85761,3.149952 3.68828,4.198416 0.83068,1.048462 1.67018,2.099073 1.86556,2.334695 l 0.35523,0.428402 3.08278,-0.771463 3.08277,-0.771459 0.49538,0.785978 c 0.27245,0.432288 1.16637,1.963431 1.98647,3.402541 l 1.49111,2.61656 -1.00514,0.919947 c -0.55282,0.505974 -1.74684,1.649382 -2.65335,2.540921 l -1.6482,1.620975 0.57909,1.641519 c 0.87314,2.47506 1.59933,5.1229 2.0536,7.487874 0.22447,1.168668 0.4678,2.184516 0.54072,2.257437 0.0729,0.07292 1.58372,0.612309 3.35732,1.198638 l 3.22473,1.066047 v 3.59807 c 0,1.97894 -0.0483,3.646227 -0.10728,3.705079 -0.059,0.05885 -1.39756,0.445342 -2.97456,0.858859 -1.57701,0.41351 -3.04022,0.801438 -3.25159,0.862058 -0.21137,0.06065 -0.4187,0.273178 -0.46074,0.472349 -0.042,0.199178 -0.16175,0.821071 -0.26601,1.381986 -0.32889,1.769284 -1.35616,5.63276 -2.0349,7.653098 l -0.65369,1.945738 2.63822,2.533283 c 2.50735,2.407611 2.62785,2.553178 2.42944,2.934445 -0.62588,1.202646 -3.60904,6.095327 -3.71644,6.095327 -0.0695,0 -1.36767,-0.305957 -2.88483,-0.6799 -1.51715,-0.373943 -2.9431,-0.679898 -3.16878,-0.679898 -0.32104,0 -0.77182,0.453077 -2.07163,2.082188 -0.91373,1.14521 -2.67067,3.1172 -3.90433,4.3822 l -2.243,2.30001 0.65458,1.26947 c 0.36002,0.69821 1.07723,2.03435 1.59378,2.96922 l 0.9392,1.69975 -0.45722,0.38752 c -0.87605,0.74249 -4.91774,3.77072 -5.15335,3.86114 -0.13944,0.0535 -1.36718,-0.82152 -2.97638,-2.12129 -1.506482,-1.2168 -2.826358,-2.21236 -2.933064,-2.21236 -0.106707,0 -0.938391,0.37225 -1.848187,0.82723 -1.755229,0.87775 -5.699328,2.57227 -5.987141,2.57227 -0.222491,0 -0.198837,-0.29389 -0.32039,3.98087 l -0.105942,3.7259 -2.777833,0.72589 c -1.527809,0.39925 -2.981702,0.77068 -3.230879,0.82541 -0.439939,0.0966 -0.499685,0.006 -2.066451,-3.14356 z"
           style="fill:none;stroke:#ffffff;stroke-width:2.11667;stroke-dasharray:none;stroke-opacity:1;fill-opacity:1"
           id="path650"
           sodipodi:nodetypes="ccccssssssssscsccscscssssccsssssscccsscsssscccsscsscsssscssscccsscsscsssscsssscsscssssssscsscssssssscsssc" /></g></g></g></svg>
